<svg width="27" height="15" viewBox="0 0 27 15" fill="none" xmlns="http://www.w3.org/2000/svg">
<path d="M2 7.5L7 12.5L17.5 2" stroke="#0B8BE6" stroke-width="3" stroke-linecap="round"/>
<path d="M14.5607 9.93934L13.5 8.87868L11.3787 11L12.4393 12.0607L14.5607 9.93934ZM15 12.5L13.9393 13.5607L15 14.6213L16.0607 13.5607L15 12.5ZM26.5607 3.06066C27.1464 2.47487 27.1464 1.52513 26.5607 0.93934C25.9749 0.353553 25.0251 0.353553 24.4393 0.93934L26.5607 3.06066ZM12.4393 12.0607L13.9393 13.5607L16.0607 11.4393L14.5607 9.93934L12.4393 12.0607ZM16.0607 13.5607L26.5607 3.06066L24.4393 0.93934L13.9393 11.4393L16.0607 13.5607Z" fill="#0B8BE6"/>
</svg>
