<svg width="46" height="46" viewBox="0 0 46 46" fill="none" xmlns="http://www.w3.org/2000/svg">
<path d="M23.0002 3.8335C12.4393 3.8335 3.8335 12.4393 3.8335 23.0002C3.8335 33.561 12.4393 42.1668 23.0002 42.1668C33.561 42.1668 42.1668 33.561 42.1668 23.0002C42.1668 12.4393 33.561 3.8335 23.0002 3.8335ZM29.4402 27.4085C29.996 27.9643 29.996 28.8843 29.4402 29.4402C29.1527 29.7277 28.7885 29.8618 28.4243 29.8618C28.0602 29.8618 27.696 29.7277 27.4085 29.4402L23.0002 25.0318L18.5918 29.4402C18.3043 29.7277 17.9402 29.8618 17.576 29.8618C17.2118 29.8618 16.8477 29.7277 16.5602 29.4402C16.0043 28.8843 16.0043 27.9643 16.5602 27.4085L20.9685 23.0002L16.5602 18.5918C16.0043 18.036 16.0043 17.116 16.5602 16.5602C17.116 16.0043 18.036 16.0043 18.5918 16.5602L23.0002 20.9685L27.4085 16.5602C27.9643 16.0043 28.8843 16.0043 29.4402 16.5602C29.996 17.116 29.996 18.036 29.4402 18.5918L25.0318 23.0002L29.4402 27.4085Z" fill="#0B8BE6"/>
</svg>
