<svg width="30" height="30" viewBox="0 0 30 30" fill="none" xmlns="http://www.w3.org/2000/svg">
<path d="M20 16.125V21.375C20 25.75 18.25 27.5 13.875 27.5H8.625C4.25 27.5 2.5 25.75 2.5 21.375V16.125C2.5 11.75 4.25 10 8.625 10H13.875C18.25 10 20 11.75 20 16.125Z" fill="#0B8BE6"/>
<path d="M21.375 2.5H16.125C12.1747 2.5 10.3745 3.9369 10.0615 7.42556C10.0118 7.98025 10.4674 8.4375 11.0244 8.4375H13.875C19.125 8.4375 21.5625 10.875 21.5625 16.125V18.9756C21.5625 19.5325 22.0197 19.9882 22.5744 19.9384C26.0631 19.6254 27.5 17.8253 27.5 13.875V8.625C27.5 4.25 25.75 2.5 21.375 2.5Z" fill="#0B8BE6"/>
</svg>
