<svg width="32" height="32" viewBox="0 0 32 32" fill="none" xmlns="http://www.w3.org/2000/svg">
<path d="M27.4667 5.46647V8.39981C27.4667 9.46647 26.8 10.7998 26.1333 11.4665L20.4 16.5331C19.6 17.1998 19.0667 18.5331 19.0667 19.5998V25.3331C19.0667 26.1331 18.5333 27.1998 17.8667 27.5998L16 28.7998C14.2667 29.8665 11.8667 28.6665 11.8667 26.5331V19.4665C11.8667 18.5331 11.3333 17.3331 10.8 16.6665L10.1733 16.0131C9.76001 15.5731 9.68001 14.9065 10.0133 14.3865L16.84 3.42647C17.08 3.0398 17.5067 2.7998 17.9733 2.7998H24.8C26.2667 2.7998 27.4667 3.9998 27.4667 5.46647Z" fill="#0B8BE6"/>
<path d="M13.8001 4.83981L9.06678 12.4265C8.61345 13.1598 7.57345 13.2665 6.97345 12.6398L5.73345 11.3331C5.06678 10.6665 4.53345 9.46647 4.53345 8.66647V5.5998C4.53345 3.9998 5.73345 2.7998 7.20011 2.7998H12.6668C13.7068 2.7998 14.3468 3.94647 13.8001 4.83981Z" fill="#0B8BE6"/>
</svg>
