<svg width="72" height="72" viewBox="0 0 72 72" fill="none" xmlns="http://www.w3.org/2000/svg">
<path d="M27 30C30.3137 30 33 27.3137 33 24C33 20.6863 30.3137 18 27 18C23.6863 18 21 20.6863 21 24C21 27.3137 23.6863 30 27 30Z" stroke="#0B8BE6" stroke-width="5" stroke-linecap="round" stroke-linejoin="round"/>
<path d="M39 6H27C12 6 6 12 6 27V45C6 60 12 66 27 66H45C60 66 66 60 66 45V30" stroke="#0B8BE6" stroke-width="5" stroke-linecap="round" stroke-linejoin="round"/>
<path d="M47.25 15H63.75" stroke="#0B8BE6" stroke-width="5" stroke-linecap="round"/>
<path d="M55.5 23.25V6.75" stroke="#0B8BE6" stroke-width="5" stroke-linecap="round"/>
<path d="M8.00977 56.8502L22.7998 46.9202C25.1698 45.3302 28.5898 45.5102 30.7198 47.3402L31.7098 48.2102C34.0498 50.2202 37.8298 50.2202 40.1698 48.2102L52.6498 37.5002C54.9898 35.4902 58.7698 35.4902 61.1098 37.5002L65.9998 41.7002" stroke="#0B8BE6" stroke-width="5" stroke-linecap="round" stroke-linejoin="round"/>
</svg>
