<svg width="28" height="28" viewBox="0 0 28 28" fill="none" xmlns="http://www.w3.org/2000/svg">
<path d="M19.8333 21.5017H15.1666L9.9749 24.955C9.2049 25.4683 8.16659 24.92 8.16659 23.9867V21.5017C4.66659 21.5017 2.33325 19.1684 2.33325 15.6684V8.66829C2.33325 5.16829 4.66659 2.83496 8.16659 2.83496H19.8333C23.3333 2.83496 25.6666 5.16829 25.6666 8.66829V15.6684C25.6666 19.1684 23.3333 21.5017 19.8333 21.5017Z" stroke="#727272" stroke-width="1.5" stroke-miterlimit="10" stroke-linecap="round" stroke-linejoin="round"/>
<path d="M14.0001 13.2529V13.008C14.0001 12.2146 14.4901 11.7946 14.9801 11.4563C15.4585 11.1296 15.9367 10.7096 15.9367 9.93964C15.9367 8.8663 15.0734 8.00293 14.0001 8.00293C12.9268 8.00293 12.0635 8.8663 12.0635 9.93964" stroke="#727272" stroke-width="1.5" stroke-linecap="round" stroke-linejoin="round"/>
<path d="M13.9948 16.0413H14.0053" stroke="#727272" stroke-width="1.5" stroke-linecap="round" stroke-linejoin="round"/>
</svg>
