<svg width="30" height="30" viewBox="0 0 30 30" fill="none" xmlns="http://www.w3.org/2000/svg">
<path d="M26.9125 19.9127C26.7125 19.5752 26.15 19.0502 24.75 19.3002C23.975 19.4377 23.1875 19.5002 22.4 19.4627C19.4875 19.3377 16.85 18.0002 15.0125 15.9377C13.3875 14.1252 12.3875 11.7627 12.375 9.21271C12.375 7.78771 12.65 6.41271 13.2125 5.11271C13.7625 3.85021 13.375 3.18771 13.1 2.91271C12.8125 2.62521 12.1375 2.22521 10.8125 2.77521C5.7 4.92521 2.5375 10.0502 2.9125 15.5377C3.2875 20.7002 6.9125 25.1127 11.7125 26.7752C12.8625 27.1752 14.075 27.4127 15.325 27.4627C15.525 27.4752 15.725 27.4877 15.925 27.4877C20.1125 27.4877 24.0375 25.5127 26.5125 22.1502C27.35 20.9877 27.125 20.2502 26.9125 19.9127Z" fill="white"/>
</svg>
