<svg width="447" height="430" viewBox="0 0 447 430" fill="none" xmlns="http://www.w3.org/2000/svg">
<path d="M445.634 79.5987C444.547 77.3582 442.81 75.4976 440.649 74.2602L310.78 0.381399C310.181 0.151944 309.548 0.0236851 308.907 0.00188048C302.228 -0.124624 295.51 6.16266 294.562 9.47709C294.346 9.89587 294.234 10.3598 294.233 10.8307V291.608C294.232 293.801 294.812 295.954 295.915 297.85C297.017 299.745 298.602 301.315 300.507 302.399L430.377 376.404C430.537 376.483 430.702 376.55 430.871 376.607C438.625 379.896 446.874 373.065 446.874 365.904V85.0637C446.883 83.1713 446.459 81.3019 445.634 79.5987Z" fill="#263238"/>
<path d="M294.574 9.48979C295.523 6.17536 302.24 -0.111929 308.92 0.0145758C309.561 0.0363804 310.193 0.16463 310.792 0.394085L440.674 74.2603C442.574 75.3565 444.155 76.9275 445.264 78.8193C446.373 80.711 446.971 82.8585 447 85.0511V365.892C447 373.052 438.752 379.883 430.997 376.594C430.828 376.538 430.663 376.47 430.503 376.392L300.507 302.399C298.604 301.313 297.021 299.743 295.922 297.848C294.822 295.952 294.243 293.8 294.245 291.608V10.8434C294.246 10.3725 294.359 9.90857 294.574 9.48979Z" fill="#455A64"/>
<path d="M428.808 114.742C428.805 113.645 428.514 112.569 427.963 111.621C427.412 110.673 426.622 109.886 425.671 109.34L305.087 40.7491C304.615 40.4813 304.082 40.3419 303.54 40.3448C302.998 40.3476 302.466 40.4926 301.997 40.7653C301.528 41.038 301.14 41.4289 300.869 41.8989C300.599 42.3688 300.457 42.9015 300.457 43.4437V269.951C300.458 271.046 300.749 272.121 301.3 273.067C301.851 274.014 302.642 274.798 303.594 275.34L424.229 344.057C424.702 344.324 425.237 344.463 425.781 344.46C426.325 344.456 426.858 344.31 427.327 344.036C427.797 343.762 428.187 343.37 428.458 342.899C428.729 342.428 428.871 341.893 428.872 341.35L428.808 114.742Z" fill="#0B8BE6"/>
<path opacity="0.2" d="M428.808 114.742C428.805 113.645 428.514 112.569 427.963 111.621C427.412 110.673 426.622 109.886 425.671 109.34L305.087 40.7491C304.615 40.4813 304.082 40.3419 303.54 40.3448C302.998 40.3476 302.466 40.4926 301.997 40.7653C301.528 41.038 301.14 41.4289 300.869 41.8989C300.599 42.3688 300.457 42.9015 300.457 43.4437V269.951C300.458 271.046 300.749 272.121 301.3 273.067C301.851 274.014 302.642 274.798 303.594 275.34L424.229 344.057C424.702 344.324 425.237 344.463 425.781 344.46C426.325 344.456 426.858 344.31 427.327 344.036C427.797 343.762 428.187 343.37 428.458 342.899C428.729 342.428 428.871 341.893 428.872 341.35L428.808 114.742Z" fill="black"/>
<path opacity="0.3" d="M446.924 85.0513V365.892C446.924 373.052 438.676 379.883 430.921 376.594C431.388 376.762 431.887 376.816 432.379 376.751C432.87 376.685 433.339 376.503 433.745 376.22C434.152 375.936 434.484 375.559 434.715 375.12C434.945 374.681 435.067 374.193 435.07 373.697V92.8566C435.062 90.414 434.331 88.0285 432.97 86L445.684 79.6748C446.496 81.3511 446.92 83.1887 446.924 85.0513Z" fill="black"/>
<path opacity="0.1" d="M308.907 0.0524919C309.548 0.0742966 310.181 0.202556 310.779 0.43201L440.675 74.2602C442.835 75.4976 444.573 77.3582 445.659 79.5987L432.945 85.924C431.879 84.3017 430.45 82.9503 428.771 81.977L298.888 8.13615C298.519 7.92806 298.111 7.79787 297.69 7.75361C297.268 7.70935 296.842 7.75196 296.438 7.87882C296.034 8.00568 295.66 8.21408 295.339 8.49115C295.019 8.76823 294.758 9.10809 294.574 9.48975C295.51 6.16267 302.228 -0.124615 308.907 0.0524919Z" fill="white"/>
<path d="M348.63 54.5258C347.719 53.9945 346.96 54.3993 346.96 55.4493C346.99 56.0264 347.156 56.5882 347.444 57.0893C347.732 57.5904 348.134 58.0166 348.617 58.3336L374.095 73.0334C375.006 73.5648 375.74 73.122 375.74 72.072C375.712 71.504 375.55 70.9507 375.266 70.4579C374.982 69.9652 374.585 69.5471 374.108 69.2383L348.63 54.5258Z" fill="#263238"/>
<path d="M380.648 73.0081C379.737 72.4894 378.991 72.9069 378.991 73.9569C379.024 74.5285 379.19 75.0846 379.475 75.5809C379.761 76.0772 380.158 76.5001 380.635 76.8159C381.546 77.3472 382.305 76.9045 382.305 75.8671C382.272 75.2942 382.105 74.737 381.817 74.2405C381.529 73.7439 381.129 73.3218 380.648 73.0081Z" fill="#263238"/>
<path d="M364.342 52.3875C362.52 51.3375 361.04 52.1724 361.04 54.2597C361.096 55.4054 361.423 56.5216 361.992 57.5174C362.561 58.5132 363.358 59.3605 364.316 59.9904C366.138 61.0404 367.643 60.1802 367.656 58.0802C367.588 56.9379 367.253 55.8276 366.678 54.8387C366.102 53.8498 365.302 53.0102 364.342 52.3875Z" fill="#263238"/>
<path d="M364.329 316.82C360.622 314.683 357.624 316.378 357.612 320.616C357.729 322.945 358.394 325.214 359.552 327.238C360.711 329.262 362.33 330.985 364.278 332.267C367.998 334.405 371.072 332.659 371.084 328.383C370.944 326.061 370.26 323.804 369.086 321.796C367.913 319.787 366.283 318.083 364.329 316.82Z" fill="#263238"/>
<path d="M409.048 124.964C408.893 123.697 408.525 122.465 407.96 121.32C407.713 120.82 407.43 120.338 407.113 119.878C406.16 118.476 404.901 117.309 403.432 116.463L285.554 49.4151L285.377 49.3392C285.22 49.2866 285.059 49.2443 284.897 49.2127C284.55 49.143 284.199 49.1007 283.847 49.0862C281.931 49.0733 280.038 49.5064 278.318 50.3513C276.638 51.1801 275.09 52.2545 273.726 53.5392L273.005 54.2603C272.045 55.2065 271.303 56.3505 270.829 57.6126C270.737 57.7984 270.665 57.9935 270.614 58.1946C270.552 58.4039 270.522 58.6214 270.526 58.8397V313.785C270.531 315.773 271.06 317.725 272.06 319.444C273.059 321.162 274.493 322.588 276.218 323.576L394.096 390.75C394.243 390.82 394.395 390.88 394.551 390.928C401.585 393.913 409.074 387.714 409.074 381.212V126.267C409.091 125.832 409.082 125.397 409.048 124.964Z" fill="#0B8BE6"/>
<path d="M270.804 57.6762C271.664 54.6781 277.762 48.96 283.821 49.0865C284.405 49.1002 284.982 49.2114 285.529 49.4154L403.406 116.463C405.365 117.596 406.942 119.287 407.935 121.321C408.697 122.859 409.095 124.551 409.099 126.267V381.225C409.099 387.727 401.61 393.875 394.576 390.941C394.42 390.893 394.268 390.833 394.121 390.763L276.218 323.551C274.491 322.566 273.054 321.141 272.055 319.422C271.055 317.702 270.527 315.749 270.526 313.76V58.9033C270.524 58.4784 270.619 58.0588 270.804 57.6762Z" fill="#0B8BE6"/>
<path opacity="0.2" d="M409.048 126.267V381.224C409.048 387.727 401.559 393.875 394.526 390.94C394.951 391.103 395.409 391.159 395.861 391.105C396.313 391.05 396.744 390.886 397.118 390.627C397.492 390.367 397.797 390.021 398.007 389.617C398.216 389.213 398.324 388.764 398.321 388.309V133.313C398.315 131.097 397.655 128.931 396.423 127.089L407.961 121.32C408.696 122.864 409.068 124.556 409.048 126.267Z" fill="white"/>
<path opacity="0.4" d="M283.809 49.0734C284.392 49.087 284.97 49.1982 285.517 49.4023L403.394 116.45C405.353 117.583 406.929 119.274 407.923 121.308L396.398 127.089C395.433 125.613 394.132 124.387 392.603 123.509L274.726 56.4612C274.389 56.272 274.017 56.1545 273.633 56.1161C273.249 56.0777 272.861 56.1192 272.494 56.238C272.127 56.3569 271.788 56.5505 271.5 56.8066C271.211 57.0627 270.978 57.3759 270.817 57.7263C271.652 54.6649 277.749 48.9468 283.809 49.0734Z" fill="white"/>
<path opacity="0.3" d="M270.804 57.6762C271.664 54.6781 277.762 48.96 283.821 49.0865C284.405 49.1002 284.982 49.2114 285.529 49.4154L403.406 116.463C405.365 117.596 406.942 119.287 407.935 121.321C408.697 122.859 409.095 124.551 409.099 126.267V381.225C409.099 387.727 401.61 393.875 394.576 390.941C394.42 390.893 394.268 390.833 394.121 390.763L276.218 323.551C274.491 322.566 273.054 321.141 272.055 319.422C271.055 317.702 270.527 315.749 270.526 313.76V58.9033C270.524 58.4784 270.619 58.0588 270.804 57.6762Z" fill="white"/>
<path d="M282.392 72.7553L283.707 73.527L283.733 67.8469L282.404 67.0879L282.392 72.7553Z" fill="white"/>
<path d="M280.127 71.452L281.443 72.211L281.456 67.6189L280.14 66.8599L280.127 71.452Z" fill="white"/>
<path d="M277.85 70.1364L279.166 70.8954L279.179 67.4924L277.863 66.7334L277.85 70.1364Z" fill="white"/>
<path d="M275.586 68.8331L276.902 69.5922V67.2898L275.586 66.5308V68.8331Z" fill="white"/>
<path d="M287.3 75.6013L295.384 80.2693L295.397 75.5001L287.313 70.832L287.3 75.6013Z" fill="white"/>
<path d="M299.407 82.5842L303.442 84.9119L303.455 80.1553L299.419 77.8276L299.407 82.5842Z" fill="white"/>
<path d="M382.811 130.137L382.824 126.304L387.163 128.809L382.824 126.304L382.811 130.137Z" fill="white"/>
<path d="M382.811 130.137L387.151 132.642L387.163 128.809L382.824 126.304L382.811 130.137Z" fill="#0B8BE6"/>
<path d="M390.225 131.149V129.657L382.027 124.925V130.593L390.225 135.324V133.831L391.275 134.438V131.757L390.225 131.149ZM387.15 132.642L382.811 130.112V126.317L387.15 128.847V132.642Z" fill="white"/>
<path d="M370.287 123.42L378.371 128.075L378.384 123.319L370.3 118.651L370.287 123.42Z" fill="white"/>
<path d="M331.716 100.864L339.8 105.532L339.812 100.775L331.729 96.1074L331.716 100.864Z" fill="white"/>
<path d="M376.764 146.178L257.989 77.6002C257.648 77.3632 257.254 77.2138 256.841 77.1653C256.428 77.1167 256.01 77.1705 255.623 77.3219H255.56L253.03 78.7641L254.586 80.3074L254.497 114.223V115.02V124.167C254.562 125.357 254.906 126.516 255.501 127.549C256.097 128.582 256.927 129.46 257.926 130.112L372.071 196.135L376.461 200.462L378.915 199.058C379.005 199.016 379.089 198.965 379.168 198.906H379.282C379.559 198.647 379.774 198.33 379.912 197.978C380.05 197.625 380.107 197.246 380.079 196.869V188.494V186.926L380.18 152.225C380.133 151.018 379.798 149.84 379.204 148.788C378.61 147.737 377.774 146.842 376.764 146.178Z" fill="#0B8BE6"/>
<path opacity="0.2" d="M376.764 146.178L257.989 77.6002C257.648 77.3632 257.254 77.2138 256.841 77.1653C256.428 77.1167 256.01 77.1705 255.623 77.3219H255.56L253.03 78.7641L254.586 80.3074L254.497 114.223V115.02V124.167C254.562 125.357 254.906 126.516 255.501 127.549C256.097 128.582 256.927 129.46 257.926 130.112L372.071 196.135L376.461 200.462L378.915 199.058C379.005 199.016 379.089 198.965 379.168 198.906H379.282C379.559 198.647 379.774 198.33 379.912 197.978C380.05 197.625 380.107 197.246 380.079 196.869V188.494V186.926L380.18 152.225C380.133 151.018 379.798 149.84 379.204 148.788C378.61 147.737 377.774 146.842 376.764 146.178Z" fill="black"/>
<path d="M374.222 147.608C375.22 148.26 376.051 149.138 376.646 150.171C377.242 151.204 377.586 152.363 377.65 153.553L377.549 188.241L251.891 115.703V117.284L377.549 189.81V198.172C377.549 200.36 375.993 201.246 374.095 200.145L255.294 131.617C254.298 130.967 253.468 130.09 252.873 129.06C252.277 128.029 251.932 126.873 251.866 125.684L251.993 81.0408C251.993 78.8649 253.536 77.9794 255.446 79.0673L374.222 147.608Z" fill="#0B8BE6"/>
<path d="M377.549 188.241V189.823L251.891 117.285V115.704L377.549 188.241Z" fill="#0B8BE6"/>
<g opacity="0.2">
<path d="M377.549 188.241V189.823L251.891 117.285V115.704L377.549 188.241Z" fill="white"/>
</g>
<g opacity="0.6">
<path d="M316.169 158.361L316.156 162.232L255.851 127.405L255.864 123.547L316.169 158.361Z" fill="white"/>
</g>
<path d="M278.23 97.0439C278.828 97.4353 279.325 97.9624 279.682 98.5823C280.038 99.2022 280.242 99.8974 280.279 100.611V123.812C280.279 125.077 279.356 125.647 278.204 124.989L258.027 113.325C257.427 112.938 256.927 112.414 256.568 111.796C256.21 111.178 256.003 110.484 255.965 109.77L256.028 86.5693C256.028 85.3043 256.964 84.7223 258.103 85.3802L278.23 97.0439Z" fill="white"/>
<g opacity="0.6">
<path d="M351.969 142.08L351.957 147.153L288.059 110.264L288.072 105.191L351.969 142.08Z" fill="white"/>
</g>
<g opacity="0.6">
<path d="M323.696 143.585L323.683 148.658L288.009 128.063L288.021 122.99L323.696 143.585Z" fill="white"/>
</g>
<g opacity="0.6">
<path d="M351.944 150.986L351.932 156.046L288.034 119.157L288.047 114.097L351.944 150.986Z" fill="white"/>
</g>
<g opacity="0.5">
<path d="M372.792 151.846L370.869 153.566L373.134 158.26L371.236 157.159L369.87 154.199L368.617 155.654L366.707 154.541L369.022 152.504L367.175 148.607L369.048 149.683L370.034 151.859L370.895 150.758L372.792 151.846Z" fill="white"/>
</g>
<path d="M376.764 209.367L257.989 140.789C257.647 140.554 257.252 140.407 256.839 140.361C256.427 140.314 256.009 140.37 255.623 140.523H255.56L253.03 141.965L254.586 143.509L254.497 177.425V178.222V187.368C254.564 188.557 254.908 189.713 255.504 190.743C256.1 191.774 256.929 192.65 257.926 193.301L372.16 259.261L376.549 263.587L379.004 262.17C379.093 262.134 379.178 262.087 379.257 262.031L379.37 261.968C379.647 261.71 379.862 261.393 380 261.04C380.138 260.688 380.195 260.309 380.167 259.931V251.557V249.975L380.269 215.288C380.192 214.095 379.835 212.936 379.226 211.908C378.617 210.879 377.773 210.008 376.764 209.367Z" fill="#0B8BE6"/>
<path opacity="0.2" d="M376.764 209.367L257.989 140.789C257.647 140.554 257.252 140.407 256.839 140.361C256.427 140.314 256.009 140.37 255.623 140.523H255.56L253.03 141.965L254.586 143.509L254.497 177.425V178.222V187.368C254.564 188.557 254.908 189.713 255.504 190.743C256.1 191.774 256.929 192.65 257.926 193.301L372.16 259.261L376.549 263.587L379.004 262.17C379.093 262.134 379.178 262.087 379.257 262.031L379.37 261.968C379.647 261.71 379.862 261.393 380 261.04C380.138 260.688 380.195 260.309 380.167 259.931V251.557V249.975L380.269 215.288C380.192 214.095 379.835 212.936 379.226 211.908C378.617 210.879 377.773 210.008 376.764 209.367Z" fill="black"/>
<path d="M374.222 210.81C375.22 211.462 376.051 212.34 376.646 213.373C377.242 214.406 377.586 215.565 377.65 216.756L377.549 251.443L251.891 178.905V180.474L377.549 253.062V261.424C377.549 263.613 375.993 264.498 374.095 263.398L255.32 194.82C254.323 194.169 253.493 193.293 252.898 192.262C252.302 191.231 251.958 190.075 251.891 188.887L252.018 144.243C252.018 142.054 253.561 141.169 255.472 142.269L374.222 210.81Z" fill="#0B8BE6"/>
<path d="M377.549 251.443V253.024L251.891 180.474V178.905L377.549 251.443Z" fill="#0B8BE6"/>
<g opacity="0.2">
<path d="M377.549 251.443V253.024L251.891 180.474V178.905L377.549 251.443Z" fill="white"/>
</g>
<path d="M278.23 160.246C278.828 160.637 279.325 161.164 279.682 161.784C280.038 162.404 280.242 163.099 280.279 163.813V187.001C280.279 188.266 279.356 188.836 278.204 188.19L258.027 176.527C257.425 176.138 256.924 175.612 256.565 174.992C256.207 174.372 256.001 173.675 255.965 172.959L256.028 149.771C256.028 148.506 256.964 147.924 258.103 148.582L278.23 160.246Z" fill="white"/>
<g opacity="0.6">
<path d="M351.969 205.281L351.957 210.354L288.059 173.453L288.072 168.38L351.969 205.281Z" fill="white"/>
</g>
<g opacity="0.5">
<path d="M372.792 215.047L370.869 216.768L373.134 221.448L371.236 220.36L369.87 217.4L368.617 218.842L366.707 217.742L369.022 215.705L367.175 211.809L369.048 212.884L370.034 215.06L370.895 213.959L372.792 215.047Z" fill="white"/>
</g>
<path opacity="0.6" d="M255.864 186.748L255.851 190.606L290.906 210.847V206.976L255.864 186.748Z" fill="white"/>
<path opacity="0.6" d="M288.047 177.286L288.034 182.358L318.509 199.943V194.87L288.047 177.286Z" fill="white"/>
<path d="M376.764 336.644L257.989 268.066C257.648 267.829 257.254 267.679 256.841 267.631C256.428 267.582 256.01 267.636 255.623 267.787H255.56L253.03 269.229L254.586 270.773L254.497 304.689V305.486V314.632C254.562 315.823 254.906 316.981 255.501 318.014C256.097 319.047 256.927 319.926 257.926 320.578L372.16 386.525L376.549 390.851L379.004 389.447L379.257 389.308L379.37 389.232C379.647 388.974 379.862 388.657 380 388.304C380.138 387.952 380.195 387.573 380.167 387.195V378.833V377.252L380.269 342.552C380.19 341.361 379.832 340.205 379.223 339.179C378.614 338.152 377.772 337.284 376.764 336.644Z" fill="#0B8BE6"/>
<path opacity="0.2" d="M376.764 336.644L257.989 268.066C257.648 267.829 257.254 267.679 256.841 267.631C256.428 267.582 256.01 267.636 255.623 267.787H255.56L253.03 269.229L254.586 270.773L254.497 304.689V305.486V314.632C254.562 315.823 254.906 316.981 255.501 318.014C256.097 319.047 256.927 319.926 257.926 320.578L372.16 386.525L376.549 390.851L379.004 389.447L379.257 389.308L379.37 389.232C379.647 388.974 379.862 388.657 380 388.304C380.138 387.952 380.195 387.573 380.167 387.195V378.833V377.252L380.269 342.552C380.19 341.361 379.832 340.205 379.223 339.179C378.614 338.152 377.772 337.284 376.764 336.644Z" fill="black"/>
<path d="M374.222 338.086C375.218 338.737 376.048 339.613 376.643 340.644C377.239 341.674 377.584 342.831 377.65 344.019L377.549 378.719L251.891 306.194V307.776L377.549 380.313V388.688C377.549 390.864 375.993 391.749 374.095 390.662L255.32 322.083C254.321 321.431 253.491 320.553 252.895 319.52C252.3 318.487 251.956 317.328 251.891 316.138L252.018 271.507C252.018 269.318 253.561 268.433 255.472 269.533L374.222 338.086Z" fill="#0B8BE6"/>
<path d="M377.549 378.719V380.288L251.891 307.75V306.169L377.549 378.719Z" fill="#0B8BE6"/>
<g opacity="0.2">
<path d="M377.549 378.719V380.288L251.891 307.75V306.169L377.549 378.719Z" fill="white"/>
</g>
<path d="M278.23 287.51C278.827 287.902 279.324 288.429 279.68 289.049C280.036 289.668 280.241 290.363 280.279 291.077V314.278C280.279 315.543 279.356 316.112 278.204 315.454L258.027 303.803C257.426 303.413 256.926 302.887 256.568 302.267C256.21 301.647 256.003 300.951 255.965 300.236L255.978 277.098C255.978 275.833 256.914 275.264 258.052 275.922L278.23 287.51Z" fill="white"/>
<g opacity="0.6">
<path d="M351.969 332.545L351.957 337.618L288.059 300.729L288.072 295.656L351.969 332.545Z" fill="white"/>
</g>
<g opacity="0.5">
<path d="M372.792 342.324L370.869 344.045L373.134 348.726L371.236 347.638L369.87 344.677L368.617 346.12L366.707 345.019L369.022 342.97L367.175 339.073L369.048 340.161L370.034 342.337L370.895 341.224L372.792 342.324Z" fill="white"/>
</g>
<path opacity="0.6" d="M255.864 314.013L255.851 317.884L290.906 338.112V334.241L255.864 314.013Z" fill="white"/>
<path opacity="0.6" d="M288.047 304.562L288.034 309.623L301.81 317.567V312.494L288.047 304.562Z" fill="white"/>
<path d="M376.764 272.569L257.989 203.991C257.65 203.749 257.254 203.598 256.841 203.552C256.427 203.505 256.008 203.565 255.623 203.725H255.56L253.03 205.18L254.586 206.711L254.497 240.639V241.436V250.583C254.564 251.771 254.908 252.927 255.504 253.958C256.1 254.989 256.929 255.865 257.926 256.516L372.16 322.475L376.549 326.802L379.004 325.385L379.257 325.246L379.37 325.182C379.649 324.923 379.865 324.604 380.003 324.249C380.141 323.894 380.197 323.513 380.167 323.133V314.771V313.19L380.269 278.502C380.194 277.307 379.838 276.146 379.229 275.115C378.62 274.084 377.775 273.211 376.764 272.569Z" fill="#0B8BE6"/>
<path opacity="0.2" d="M376.764 272.569L257.989 203.991C257.65 203.749 257.254 203.598 256.841 203.552C256.427 203.505 256.008 203.565 255.623 203.725H255.56L253.03 205.18L254.586 206.711L254.497 240.639V241.436V250.583C254.564 251.771 254.908 252.927 255.504 253.958C256.1 254.989 256.929 255.865 257.926 256.516L372.16 322.475L376.549 326.802L379.004 325.385L379.257 325.246L379.37 325.182C379.649 324.923 379.865 324.604 380.003 324.249C380.141 323.894 380.197 323.513 380.167 323.133V314.771V313.19L380.269 278.502C380.194 277.307 379.838 276.146 379.229 275.115C378.62 274.084 377.775 273.211 376.764 272.569Z" fill="black"/>
<path d="M374.222 274.011C375.218 274.662 376.048 275.538 376.643 276.569C377.239 277.6 377.584 278.756 377.65 279.944L377.549 314.645L251.891 242.094V243.675L377.549 316.226V324.588C377.549 326.776 375.993 327.649 374.095 326.561L255.32 257.983C254.323 257.332 253.493 256.456 252.898 255.426C252.302 254.395 251.958 253.239 251.891 252.05L252.018 207.407C252.018 205.218 253.561 204.332 255.472 205.433L374.222 274.011Z" fill="#0B8BE6"/>
<path d="M377.549 314.645V316.226L251.891 243.676V242.094L377.549 314.645Z" fill="#0B8BE6"/>
<g opacity="0.2">
<path d="M377.549 314.645V316.226L251.891 243.676V242.094L377.549 314.645Z" fill="white"/>
</g>
<g opacity="0.6">
<path d="M300.71 275.972L300.697 279.831L255.851 253.809L255.864 249.95L300.71 275.972Z" fill="white"/>
</g>
<path d="M278.23 223.435C278.827 223.827 279.324 224.354 279.68 224.974C280.036 225.594 280.241 226.289 280.279 227.003V250.203C280.279 251.469 279.356 252.038 278.204 251.38L258.027 239.729C257.425 239.34 256.924 238.814 256.565 238.194C256.207 237.574 256.001 236.877 255.965 236.161L256.028 212.973C256.028 211.708 256.964 211.126 258.103 211.784L278.23 223.435Z" fill="white"/>
<g opacity="0.6">
<path d="M351.969 268.471L351.957 273.544L288.059 236.655L288.072 231.582L351.969 268.471Z" fill="white"/>
</g>
<g opacity="0.6">
<path d="M340.698 279.907L340.685 284.979L288.009 254.466L288.021 249.394L340.698 279.907Z" fill="white"/>
</g>
<g opacity="0.6">
<path d="M351.944 277.377L351.932 282.449L288.034 245.561L288.047 240.488L351.944 277.377Z" fill="white"/>
</g>
<g opacity="0.5">
<path d="M372.792 278.249L370.869 279.97L373.134 284.65L371.236 283.562L369.87 280.602L368.617 282.044L366.707 280.944L369.022 278.907L367.175 275.011L369.048 276.086L370.034 278.262L370.895 277.161L372.792 278.249Z" fill="white"/>
</g>
<path d="M241.354 78.3971L220.177 66.2527C218.33 65.19 213.94 66.6322 213.94 69.6177C213.939 69.3759 214.002 69.1382 214.123 68.9284C214.243 68.7186 214.416 68.5441 214.625 68.4224C214.834 68.3006 215.071 68.2359 215.313 68.2348C215.554 68.2337 215.792 68.2961 216.002 68.4159L237.166 80.5604C237.862 80.9602 238.422 81.5596 238.773 82.2808L242.885 79.9405C242.522 79.298 241.993 78.765 241.354 78.3971Z" fill="#0B8BE6"/>
<path d="M238.773 82.2808C239.074 82.8503 239.235 83.4836 239.241 84.1278V108.429C239.239 108.67 239.175 108.906 239.054 109.114C238.933 109.322 238.759 109.495 238.551 109.615C238.342 109.735 238.106 109.799 237.865 109.8C237.625 109.8 237.388 109.738 237.179 109.619C237.789 110 238.49 110.213 239.209 110.237C239.928 110.261 240.641 110.094 241.275 109.754C241.91 109.413 242.443 108.912 242.821 108.299C243.199 107.687 243.408 106.986 243.428 106.266V81.9772C243.422 81.2672 243.235 80.5706 242.884 79.9531L238.773 82.2808Z" fill="#0B8BE6"/>
<path opacity="0.4" d="M241.354 78.3971L220.177 66.2527C218.33 65.19 213.94 66.6322 213.94 69.6177C213.939 69.3759 214.002 69.1382 214.123 68.9284C214.243 68.7186 214.416 68.5441 214.625 68.4224C214.834 68.3006 215.071 68.2359 215.313 68.2348C215.554 68.2337 215.792 68.2961 216.002 68.4159L237.166 80.5604C237.862 80.9602 238.422 81.5596 238.773 82.2808L242.885 79.9405C242.522 79.298 241.993 78.765 241.354 78.3971Z" fill="white"/>
<path opacity="0.2" d="M238.773 82.2808C239.074 82.8503 239.235 83.4836 239.241 84.1278V108.429C239.239 108.67 239.175 108.906 239.054 109.114C238.933 109.322 238.759 109.495 238.551 109.615C238.342 109.735 238.106 109.799 237.865 109.8C237.625 109.8 237.388 109.738 237.179 109.619C237.789 110 238.49 110.213 239.209 110.237C239.928 110.261 240.641 110.094 241.275 109.754C241.91 109.413 242.443 108.912 242.821 108.299C243.199 107.687 243.408 106.986 243.428 106.266V81.9772C243.422 81.2672 243.235 80.5706 242.884 79.9531L238.773 82.2808Z" fill="white"/>
<path d="M216.002 68.3657L237.166 80.5101C237.798 80.8702 238.322 81.3913 238.687 82.0202C239.051 82.6491 239.243 83.3633 239.241 84.0902V108.392C239.239 108.632 239.175 108.869 239.054 109.077C238.933 109.285 238.759 109.457 238.551 109.578C238.342 109.698 238.106 109.761 237.865 109.762C237.625 109.763 237.388 109.7 237.179 109.581L216.015 97.4871C215.383 97.127 214.859 96.606 214.494 95.9771C214.13 95.3482 213.938 94.6339 213.94 93.907V69.6307C213.928 69.3836 213.982 69.1378 214.098 68.919C214.213 68.7002 214.385 68.5165 214.596 68.3872C214.807 68.2578 215.049 68.1875 215.296 68.1838C215.544 68.18 215.787 68.2428 216.002 68.3657Z" fill="#0B8BE6"/>
<path d="M244.339 97.2971L239.279 98.2459V91.7183L244.542 96.7025C244.586 96.7494 244.617 96.8076 244.631 96.8708C244.645 96.934 244.641 96.9999 244.621 97.0612C244.6 97.1225 244.562 97.1769 244.513 97.2185C244.463 97.2601 244.403 97.2873 244.339 97.2971Z" fill="#0B8BE6"/>
<path d="M239.254 91.7181L243.428 89.3271L248.691 94.3873C248.729 94.4259 248.758 94.4728 248.775 94.5243C248.792 94.5758 248.797 94.6305 248.79 94.6843C248.783 94.7381 248.763 94.7895 248.733 94.8346C248.702 94.8796 248.662 94.917 248.615 94.9439L244.453 97.2716L239.254 91.7181Z" fill="#0B8BE6"/>
<path opacity="0.2" d="M239.254 91.7181L243.428 89.3271L248.691 94.3873C248.729 94.4259 248.758 94.4728 248.775 94.5243C248.792 94.5758 248.797 94.6305 248.79 94.6843C248.783 94.7381 248.763 94.7895 248.733 94.8346C248.702 94.8796 248.662 94.917 248.615 94.9439L244.453 97.2716L239.254 91.7181Z" fill="white"/>
<path d="M223.984 95.564C224.263 96.9517 225.065 98.1791 226.224 98.9923H226.325C227.476 99.6627 228.602 99.3338 228.741 98.2585L223.984 95.564Z" fill="white"/>
<path d="M220.657 90.0479C221.031 89.4231 221.24 88.7136 221.265 87.9859C221.341 86.9233 221.366 85.8227 221.404 84.7347C221.48 82.4956 222.378 81.3191 224.124 81.2179C224.541 81.2179 224.63 81.0534 224.566 80.4715C224.453 79.4974 224.731 78.9155 225.389 78.8017C225.741 78.7515 226.099 78.8277 226.401 79.0167C226.808 79.2593 227.157 79.5873 227.425 79.9781C227.725 80.3378 227.951 80.7531 228.09 81.2004C228.229 81.6476 228.278 82.1179 228.235 82.5842C228.182 82.8141 228.194 83.0545 228.27 83.2781C228.346 83.5016 228.483 83.6995 228.665 83.8492C229.981 85.3931 230.855 87.2638 231.195 89.2636C231.276 89.9267 231.314 90.5944 231.309 91.2624C231.293 92.4346 231.369 93.6062 231.537 94.7666C231.709 96.0024 232.14 97.1879 232.802 98.2454C233.031 98.5614 233.151 98.9433 233.144 99.3334C233.144 99.9027 232.916 100.042 232.397 99.7508L226.35 96.1961L221.429 93.3497L220.797 92.9828L220.151 92.616C219.902 92.4695 219.71 92.2418 219.607 91.9708C219.405 91.4774 219.494 90.8576 219.797 90.7058C220.146 90.5817 220.446 90.3516 220.657 90.0479ZM225.338 89.9214L227.4 91.1106L227.931 85.7341L224.845 83.9504L225.338 89.9214ZM226.363 94.1593C227.248 94.678 227.868 94.3238 227.868 93.4509C227.835 92.9555 227.68 92.4759 227.418 92.0545C227.155 91.6331 226.793 91.2828 226.363 91.0347C225.477 90.5286 224.857 90.8323 224.857 91.7178C224.891 92.2165 225.046 92.6995 225.308 93.1249C225.57 93.5503 225.932 93.9054 226.363 94.1593ZM226.363 80.4589C226.021 80.2565 225.73 80.4589 225.73 80.8257C225.749 81.0409 225.815 81.2492 225.924 81.4353C226.034 81.6214 226.184 81.7806 226.363 81.901C226.423 81.947 226.495 81.9742 226.57 81.979C226.645 81.9838 226.72 81.9661 226.786 81.9281C226.851 81.8901 226.903 81.8335 226.936 81.7656C226.969 81.6977 226.981 81.6215 226.97 81.5468C226.97 81.3273 226.913 81.1115 226.804 80.9208C226.695 80.73 226.539 80.5708 226.35 80.4589" fill="white"/>
<path d="M241.354 143.952L220.177 131.808C218.33 130.745 213.94 132.187 213.94 135.16C213.942 134.919 214.006 134.683 214.127 134.475C214.248 134.267 214.422 134.094 214.63 133.974C214.839 133.854 215.075 133.79 215.316 133.79C215.556 133.789 215.793 133.851 216.002 133.971L237.166 146.115C237.864 146.518 238.424 147.122 238.773 147.848L242.884 145.508C242.524 144.861 241.995 144.323 241.354 143.952Z" fill="#0B8BE6"/>
<path d="M238.773 147.848C239.074 148.418 239.235 149.051 239.241 149.695V173.997C239.239 174.237 239.175 174.474 239.054 174.682C238.933 174.89 238.759 175.062 238.551 175.183C238.342 175.303 238.106 175.366 237.865 175.367C237.625 175.368 237.388 175.305 237.179 175.186C237.79 175.568 238.492 175.781 239.212 175.804C239.932 175.827 240.646 175.66 241.281 175.318C241.915 174.976 242.448 174.473 242.825 173.858C243.203 173.244 243.411 172.541 243.428 171.821V147.532C243.424 146.822 243.236 146.125 242.884 145.508L238.773 147.848Z" fill="#0B8BE6"/>
<path opacity="0.4" d="M241.354 143.952L220.177 131.808C218.33 130.745 213.94 132.187 213.94 135.16C213.942 134.919 214.006 134.683 214.127 134.475C214.248 134.267 214.422 134.094 214.63 133.974C214.839 133.854 215.075 133.79 215.316 133.79C215.556 133.789 215.793 133.851 216.002 133.971L237.166 146.115C237.864 146.518 238.424 147.122 238.773 147.848L242.884 145.508C242.524 144.861 241.995 144.323 241.354 143.952Z" fill="white"/>
<path opacity="0.2" d="M238.773 147.848C239.074 148.418 239.235 149.051 239.241 149.695V173.997C239.239 174.237 239.175 174.474 239.054 174.682C238.933 174.89 238.759 175.062 238.551 175.183C238.342 175.303 238.106 175.366 237.865 175.367C237.625 175.368 237.388 175.305 237.179 175.186C237.79 175.568 238.492 175.781 239.212 175.804C239.932 175.827 240.646 175.66 241.281 175.318C241.915 174.976 242.448 174.473 242.825 173.858C243.203 173.244 243.411 172.541 243.428 171.821V147.532C243.424 146.822 243.236 146.125 242.884 145.508L238.773 147.848Z" fill="white"/>
<path d="M216.002 133.971L237.166 146.115C237.798 146.475 238.322 146.996 238.687 147.625C239.051 148.254 239.242 148.968 239.241 149.695V173.997C239.239 174.237 239.175 174.474 239.054 174.682C238.933 174.89 238.759 175.062 238.551 175.183C238.342 175.303 238.106 175.366 237.865 175.367C237.625 175.368 237.388 175.305 237.179 175.186L216.015 163.092C215.381 162.731 214.855 162.208 214.491 161.577C214.126 160.945 213.936 160.228 213.94 159.499V135.16C213.941 134.919 214.006 134.683 214.127 134.475C214.248 134.267 214.422 134.094 214.63 133.974C214.839 133.854 215.075 133.79 215.316 133.79C215.556 133.789 215.793 133.851 216.002 133.971Z" fill="#0B8BE6"/>
<path d="M244.339 162.852L239.279 163.801V157.273L244.542 162.258C244.586 162.305 244.617 162.363 244.631 162.426C244.645 162.489 244.641 162.555 244.621 162.616C244.6 162.678 244.562 162.732 244.513 162.774C244.463 162.815 244.403 162.842 244.339 162.852Z" fill="#0B8BE6"/>
<path d="M239.254 157.273L243.428 154.882L248.691 159.943C248.729 159.981 248.758 160.028 248.775 160.079C248.792 160.131 248.797 160.186 248.79 160.24C248.783 160.293 248.763 160.345 248.733 160.39C248.702 160.435 248.662 160.472 248.615 160.499L244.453 162.827L239.254 157.273Z" fill="#0B8BE6"/>
<path opacity="0.2" d="M239.254 157.273L243.428 154.882L248.691 159.943C248.729 159.981 248.758 160.028 248.775 160.079C248.792 160.131 248.797 160.186 248.79 160.24C248.783 160.293 248.763 160.345 248.733 160.39C248.702 160.435 248.662 160.472 248.615 160.499L244.453 162.827L239.254 157.273Z" fill="white"/>
<path d="M223.984 161.106C224.26 162.498 225.062 163.731 226.224 164.547H226.325C227.476 165.217 228.602 164.876 228.741 163.813L223.984 161.106Z" fill="white"/>
<path d="M220.657 155.653C221.033 155.034 221.242 154.328 221.265 153.604C221.341 152.541 221.366 151.441 221.404 150.353C221.48 148.101 222.378 146.937 224.124 146.836C224.541 146.836 224.63 146.672 224.566 146.09C224.453 145.116 224.731 144.534 225.389 144.42C225.741 144.363 226.102 144.439 226.401 144.635C226.808 144.877 227.157 145.206 227.425 145.596C227.725 145.956 227.951 146.371 228.09 146.819C228.229 147.266 228.278 147.736 228.235 148.202C228.182 148.432 228.193 148.673 228.269 148.896C228.345 149.12 228.483 149.318 228.665 149.467C229.981 151.011 230.855 152.882 231.195 154.882C231.276 155.545 231.314 156.213 231.309 156.881C231.293 158.053 231.369 159.224 231.537 160.385C231.709 161.621 232.14 162.806 232.802 163.864C233.031 164.18 233.151 164.561 233.143 164.952C233.143 165.521 232.916 165.66 232.397 165.369L226.287 161.84L221.366 158.993L220.733 158.626L220.088 158.259C219.838 158.113 219.646 157.885 219.544 157.614C219.342 157.121 219.43 156.501 219.734 156.349C220.113 156.231 220.439 155.985 220.657 155.653ZM225.338 155.54L227.4 156.716L227.931 151.352L224.845 149.569L225.338 155.54ZM226.363 159.778C227.248 160.284 227.868 159.942 227.868 159.069C227.835 158.574 227.68 158.094 227.418 157.673C227.155 157.251 226.793 156.901 226.363 156.653C225.477 156.134 224.857 156.45 224.857 157.336C224.891 157.835 225.046 158.318 225.308 158.743C225.57 159.169 225.932 159.524 226.363 159.778ZM226.363 146.077C226.021 145.875 225.73 146.077 225.73 146.431C225.747 146.649 225.812 146.859 225.922 147.048C226.031 147.236 226.182 147.397 226.363 147.519C226.423 147.565 226.495 147.592 226.57 147.597C226.645 147.602 226.72 147.584 226.786 147.546C226.851 147.508 226.903 147.452 226.936 147.384C226.969 147.316 226.981 147.24 226.97 147.165C226.97 146.945 226.913 146.73 226.804 146.539C226.695 146.348 226.539 146.189 226.35 146.077" fill="white"/>
<path d="M241.354 209.507L220.177 197.4C218.33 196.338 213.94 197.78 213.94 200.753C213.942 200.512 214.006 200.276 214.127 200.068C214.248 199.86 214.422 199.687 214.63 199.567C214.839 199.447 215.075 199.383 215.316 199.382C215.556 199.382 215.793 199.444 216.002 199.564L237.166 211.708C237.864 212.111 238.424 212.715 238.773 213.441L242.884 211.101C242.529 210.44 242 209.888 241.354 209.507Z" fill="#0B8BE6"/>
<path d="M238.773 213.403C239.074 213.973 239.235 214.606 239.241 215.25V239.539C239.242 239.781 239.179 240.019 239.059 240.228C238.939 240.438 238.765 240.613 238.556 240.735C238.348 240.856 238.11 240.921 237.869 240.922C237.627 240.923 237.389 240.861 237.179 240.741C237.79 241.123 238.492 241.336 239.212 241.359C239.932 241.382 240.646 241.215 241.281 240.873C241.915 240.531 242.448 240.028 242.825 239.414C243.203 238.8 243.411 238.097 243.428 237.376V213.087C243.424 212.377 243.236 211.68 242.884 211.063L238.773 213.403Z" fill="#0B8BE6"/>
<path opacity="0.4" d="M241.354 209.507L220.177 197.4C218.33 196.338 213.94 197.78 213.94 200.753C213.942 200.512 214.006 200.276 214.127 200.068C214.248 199.86 214.422 199.687 214.63 199.567C214.839 199.447 215.075 199.383 215.316 199.382C215.556 199.382 215.793 199.444 216.002 199.564L237.166 211.708C237.864 212.111 238.424 212.715 238.773 213.441L242.884 211.101C242.529 210.44 242 209.888 241.354 209.507Z" fill="white"/>
<path opacity="0.2" d="M238.773 213.403C239.074 213.973 239.235 214.606 239.241 215.25V239.539C239.242 239.781 239.179 240.019 239.059 240.228C238.939 240.438 238.765 240.613 238.556 240.735C238.348 240.856 238.11 240.921 237.869 240.922C237.627 240.923 237.389 240.861 237.179 240.741C237.79 241.123 238.492 241.336 239.212 241.359C239.932 241.382 240.646 241.215 241.281 240.873C241.915 240.531 242.448 240.028 242.825 239.414C243.203 238.8 243.411 238.097 243.428 237.376V213.087C243.424 212.377 243.236 211.68 242.884 211.063L238.773 213.403Z" fill="white"/>
<path d="M216.002 199.525L237.166 211.67C237.798 212.03 238.322 212.551 238.687 213.18C239.051 213.809 239.242 214.523 239.241 215.25V239.539C239.242 239.781 239.179 240.018 239.059 240.228C238.938 240.438 238.765 240.612 238.556 240.734C238.347 240.856 238.11 240.921 237.868 240.922C237.627 240.923 237.389 240.86 237.179 240.741L216.015 228.647C215.382 228.285 214.857 227.761 214.493 227.13C214.128 226.499 213.937 225.783 213.94 225.054V200.714C213.941 200.474 214.006 200.238 214.127 200.03C214.248 199.822 214.421 199.649 214.63 199.529C214.838 199.408 215.075 199.345 215.316 199.344C215.556 199.344 215.793 199.406 216.002 199.525Z" fill="#0B8BE6"/>
<path d="M244.339 228.406L239.279 229.355V222.828L244.542 227.799C244.59 227.846 244.624 227.905 244.64 227.97C244.656 228.035 244.654 228.103 244.632 228.167C244.611 228.23 244.572 228.287 244.52 228.329C244.469 228.372 244.406 228.398 244.339 228.406Z" fill="#0B8BE6"/>
<path d="M239.254 222.827L243.428 220.437L248.691 225.497C248.729 225.535 248.758 225.582 248.775 225.634C248.792 225.685 248.797 225.74 248.79 225.794C248.783 225.848 248.763 225.899 248.733 225.944C248.702 225.989 248.662 226.026 248.615 226.053L244.453 228.381L239.254 222.827Z" fill="#0B8BE6"/>
<path opacity="0.2" d="M239.254 222.827L243.428 220.437L248.691 225.497C248.729 225.535 248.758 225.582 248.775 225.634C248.792 225.685 248.797 225.74 248.79 225.794C248.783 225.848 248.763 225.899 248.733 225.944C248.702 225.989 248.662 226.026 248.615 226.053L244.453 228.381L239.254 222.827Z" fill="white"/>
<path d="M223.984 226.661C224.257 228.051 225.06 229.281 226.224 230.089H226.325C227.476 230.747 228.602 230.418 228.741 229.356L223.984 226.661Z" fill="white"/>
<path d="M220.657 221.145C221.033 220.526 221.242 219.82 221.265 219.096C221.341 218.033 221.366 216.933 221.404 215.845C221.48 213.593 222.378 212.429 224.124 212.328C224.541 212.328 224.63 212.163 224.566 211.581C224.453 210.607 224.731 210.025 225.389 209.912C225.741 209.854 226.102 209.931 226.401 210.127C226.808 210.369 227.157 210.697 227.425 211.088C227.726 211.447 227.952 211.863 228.091 212.31C228.23 212.757 228.279 213.228 228.235 213.694C228.182 213.924 228.193 214.164 228.269 214.388C228.345 214.612 228.483 214.809 228.665 214.959C229.981 216.503 230.855 218.374 231.195 220.373C231.276 221.037 231.314 221.704 231.309 222.372C231.293 223.54 231.369 224.708 231.537 225.864C231.71 227.103 232.141 228.293 232.802 229.355C233.033 229.67 233.153 230.053 233.143 230.443C233.143 231.013 232.916 231.152 232.397 230.861L226.287 227.331L221.366 224.485L220.733 224.118L220.088 223.751C219.836 223.602 219.644 223.369 219.544 223.093C219.342 222.613 219.43 221.993 219.734 221.828C220.111 221.713 220.437 221.472 220.657 221.145ZM225.338 221.031L227.4 222.208L227.931 216.844L224.845 215.111L225.338 221.082M226.363 225.32C227.248 225.826 227.868 225.472 227.868 224.611C227.835 224.116 227.68 223.636 227.418 223.215C227.155 222.794 226.793 222.443 226.363 222.195C225.477 221.676 224.857 221.993 224.857 222.866C224.889 223.367 225.043 223.852 225.305 224.28C225.567 224.708 225.931 225.065 226.363 225.32ZM226.363 211.619C226.021 211.417 225.73 211.619 225.73 211.974C225.745 212.19 225.809 212.399 225.919 212.586C226.029 212.773 226.181 212.931 226.363 213.049C226.692 213.239 226.97 213.049 226.97 212.682C226.968 212.465 226.91 212.251 226.801 212.063C226.692 211.875 226.537 211.718 226.35 211.607" fill="white"/>
<path d="M241.354 275.061L220.177 262.917C218.33 261.841 213.94 263.283 213.94 266.269C213.938 266.027 214 265.788 214.12 265.578C214.24 265.368 214.414 265.193 214.624 265.072C214.833 264.951 215.072 264.888 215.314 264.889C215.556 264.891 215.794 264.956 216.002 265.08L237.166 277.224C237.864 277.628 238.424 278.231 238.773 278.957L242.884 276.617C242.527 275.967 241.997 275.429 241.354 275.061Z" fill="#0B8BE6"/>
<path d="M238.773 278.958C239.074 279.527 239.235 280.16 239.241 280.804V305.093C239.242 305.335 239.179 305.573 239.059 305.783C238.939 305.993 238.765 306.167 238.556 306.289C238.348 306.411 238.11 306.475 237.869 306.476C237.627 306.477 237.389 306.415 237.179 306.295C237.79 306.677 238.492 306.89 239.212 306.913C239.932 306.937 240.646 306.769 241.281 306.427C241.915 306.086 242.448 305.582 242.825 304.968C243.203 304.354 243.411 303.651 243.428 302.93V278.641C243.424 277.931 243.236 277.234 242.884 276.617L238.773 278.958Z" fill="#0B8BE6"/>
<path opacity="0.4" d="M241.354 275.061L220.177 262.917C218.33 261.841 213.94 263.283 213.94 266.269C213.938 266.027 214 265.788 214.12 265.578C214.24 265.368 214.414 265.193 214.624 265.072C214.833 264.951 215.072 264.888 215.314 264.889C215.556 264.891 215.794 264.956 216.002 265.08L237.166 277.224C237.864 277.628 238.424 278.231 238.773 278.957L242.884 276.617C242.527 275.967 241.997 275.429 241.354 275.061Z" fill="white"/>
<path opacity="0.2" d="M238.773 278.958C239.074 279.527 239.235 280.16 239.241 280.804V305.093C239.242 305.335 239.179 305.573 239.059 305.783C238.939 305.993 238.765 306.167 238.556 306.289C238.348 306.411 238.11 306.475 237.869 306.476C237.627 306.477 237.389 306.415 237.179 306.295C237.79 306.677 238.492 306.89 239.212 306.913C239.932 306.937 240.646 306.769 241.281 306.427C241.915 306.086 242.448 305.582 242.825 304.968C243.203 304.354 243.411 303.651 243.428 302.93V278.641C243.424 277.931 243.236 277.234 242.884 276.617L238.773 278.958Z" fill="white"/>
<path d="M216.002 265.08L237.166 277.225C237.798 277.585 238.322 278.106 238.687 278.735C239.051 279.363 239.242 280.078 239.241 280.805V305.094C239.242 305.335 239.179 305.573 239.059 305.783C238.938 305.993 238.765 306.167 238.556 306.289C238.347 306.411 238.11 306.475 237.869 306.476C237.627 306.478 237.389 306.415 237.179 306.295L216.015 294.202C215.382 293.839 214.857 293.316 214.493 292.685C214.128 292.054 213.938 291.338 213.94 290.609V266.269C213.938 266.027 214 265.789 214.12 265.578C214.24 265.368 214.414 265.193 214.624 265.072C214.833 264.951 215.072 264.888 215.314 264.89C215.556 264.891 215.794 264.957 216.002 265.08Z" fill="#0B8BE6"/>
<path d="M244.339 293.962L239.279 294.91V288.383L244.542 293.354C244.59 293.401 244.624 293.46 244.64 293.525C244.656 293.59 244.654 293.658 244.632 293.722C244.611 293.786 244.572 293.842 244.52 293.884C244.469 293.927 244.406 293.954 244.339 293.962Z" fill="#0B8BE6"/>
<path d="M239.254 288.383L243.428 285.992L248.691 291.052C248.729 291.09 248.758 291.137 248.775 291.189C248.792 291.24 248.797 291.295 248.79 291.349C248.783 291.403 248.763 291.454 248.733 291.499C248.702 291.544 248.662 291.582 248.615 291.609L244.453 293.936L239.254 288.383Z" fill="#0B8BE6"/>
<path opacity="0.2" d="M239.254 288.383L243.428 285.992L248.691 291.052C248.729 291.09 248.758 291.137 248.775 291.189C248.792 291.24 248.797 291.295 248.79 291.349C248.783 291.403 248.763 291.454 248.733 291.499C248.702 291.544 248.662 291.582 248.615 291.609L244.453 293.936L239.254 288.383Z" fill="white"/>
<path d="M223.984 292.279C224.257 293.669 225.06 294.899 226.224 295.707H226.325C227.476 296.365 228.602 296.036 228.741 294.961L223.984 292.279Z" fill="white"/>
<path d="M220.657 286.7C221.033 286.08 221.242 285.375 221.265 284.651C221.341 283.575 221.366 282.487 221.404 281.387C221.48 279.148 222.378 277.984 224.124 277.883C224.541 277.883 224.63 277.718 224.566 277.123C224.453 276.149 224.731 275.58 225.389 275.466C225.739 275.411 226.098 275.483 226.401 275.669C226.805 275.92 227.154 276.252 227.425 276.643C227.726 277.002 227.952 277.417 228.091 277.865C228.23 278.312 228.279 278.782 228.235 279.249C228.182 279.479 228.193 279.719 228.269 279.943C228.345 280.166 228.483 280.364 228.665 280.514C229.984 282.056 230.858 283.928 231.195 285.928C231.276 286.591 231.314 287.259 231.309 287.927C231.293 289.095 231.369 290.262 231.537 291.419C231.709 292.654 232.14 293.84 232.802 294.897C233.033 295.217 233.153 295.604 233.143 295.998C233.143 296.567 232.916 296.706 232.397 296.415L226.287 292.886L221.366 290.04L220.733 289.673L220.088 289.293C219.838 289.147 219.646 288.919 219.544 288.648C219.342 288.167 219.43 287.548 219.734 287.383C220.108 287.263 220.433 287.023 220.657 286.7ZM225.338 286.573L227.4 287.763L227.931 282.399L224.845 280.615L225.338 286.573ZM226.363 290.824C227.248 291.33 227.868 290.976 227.868 290.116C227.838 289.619 227.685 289.138 227.422 288.716C227.159 288.294 226.795 287.945 226.363 287.699C225.477 287.181 224.857 287.497 224.857 288.37C224.889 288.871 225.043 289.356 225.305 289.784C225.567 290.212 225.931 290.569 226.363 290.824ZM226.363 277.111C226.301 277.061 226.226 277.032 226.147 277.026C226.068 277.02 225.989 277.038 225.921 277.078C225.853 277.117 225.798 277.177 225.764 277.248C225.73 277.32 225.718 277.4 225.73 277.478C225.745 277.694 225.809 277.904 225.919 278.09C226.029 278.277 226.181 278.435 226.363 278.553C226.692 278.743 226.97 278.553 226.97 278.186C226.963 277.968 226.903 277.755 226.795 277.565C226.687 277.376 226.534 277.215 226.35 277.098" fill="white"/>
<path d="M97.1508 355.165L26.2069 313.671C23.9595 312.354 22.2651 310.267 21.4371 307.798C20.6092 305.328 20.7038 302.642 21.7033 300.236L25.2834 291.634L23.3605 296.251C22.4446 298.462 22.3687 300.931 23.1469 303.193C23.9252 305.456 25.5039 307.356 27.5858 308.535L104.754 352.192C104.529 352.946 104.136 353.64 103.603 354.219C103.07 354.799 102.412 355.249 101.679 355.536C100.945 355.822 100.156 355.938 99.3718 355.874C98.5872 355.809 97.8275 355.567 97.1508 355.165Z" fill="#37474F"/>
<path d="M26.8141 268.913L33.1394 272.708L25.2708 291.684L21.6907 300.286C20.6911 302.692 20.5966 305.378 21.4245 307.848C22.2524 310.318 23.9468 312.404 26.1942 313.721L97.1382 355.215C97.8145 355.614 98.573 355.855 99.3561 355.918C100.139 355.981 100.926 355.865 101.658 355.578C102.389 355.292 103.046 354.842 103.578 354.264C104.11 353.686 104.504 352.995 104.728 352.242L109.789 355.088L204.996 299.995L208.07 332.254L203.073 333L202.706 330.812C202.555 329.947 202.197 329.13 201.663 328.433C201.13 327.735 200.435 327.176 199.64 326.804C198.844 326.431 197.97 326.256 197.093 326.293C196.215 326.33 195.359 326.579 194.597 327.017L124.413 367.397C121.548 369.045 119.219 371.483 117.702 374.42C116.186 377.356 115.547 380.667 115.861 383.957L116.101 386.487H111.041L110.004 380.364C109.585 377.857 108.615 375.475 107.165 373.388C105.714 371.301 103.82 369.562 101.616 368.295L20.5268 321.59C19.7551 321.144 18.8993 320.862 18.0135 320.764C17.1276 320.665 16.2309 320.751 15.3799 321.016C14.5288 321.281 13.742 321.719 13.0689 322.304C12.3958 322.888 11.8511 323.605 11.4691 324.411L3.79024 340.527C3.79024 340.527 1.26014 341.881 0.298706 339.452L26.8141 268.913Z" fill="#455A64"/>
<path d="M117.025 189.38L193.257 248.432C195.58 250.235 197.51 252.493 198.928 255.069C200.347 257.645 201.223 260.484 201.505 263.41L210.044 353.001C209.572 353.44 208.968 353.71 208.327 353.767C207.685 353.824 207.043 353.666 206.502 353.318L191.321 263.373C191.064 261.841 190.479 260.383 189.605 259.099C188.732 257.815 187.591 256.736 186.261 255.934L118.884 215.554C110.054 210.304 108.511 191.746 117.025 189.38Z" fill="#455A64"/>
<path opacity="0.3" d="M117.025 189.38L193.257 248.432C195.58 250.235 197.51 252.493 198.928 255.069C200.347 257.645 201.223 260.484 201.505 263.41L210.044 353.001C209.572 353.44 208.968 353.71 208.327 353.767C207.685 353.824 207.043 353.666 206.502 353.318L191.321 263.373C191.064 261.841 190.479 260.383 189.605 259.099C188.732 257.815 187.591 256.736 186.261 255.934L118.884 215.554C110.054 210.304 108.511 191.746 117.025 189.38Z" fill="white"/>
<path d="M29.6984 291.318C30.0375 290.407 30.6871 289.645 31.5328 289.167L107.967 245.042C109.583 244.103 111.418 243.609 113.287 243.609C115.155 243.609 116.99 244.103 118.606 245.042L194.509 289.142C195.358 289.627 196.008 290.398 196.343 291.318C198.519 295.34 199.253 304.474 196.217 310.293C195.817 311.054 195.218 311.693 194.484 312.14L118.087 356.265C116.47 357.2 114.636 357.693 112.768 357.693C110.9 357.693 109.065 357.2 107.448 356.265L31.5454 312.166C30.799 311.73 30.2033 311.077 29.8376 310.293C26.7888 304.474 27.5226 295.34 29.6984 291.318Z" fill="#0B8BE6"/>
<path opacity="0.3" d="M29.6984 291.318C30.0375 290.407 30.6871 289.645 31.5328 289.167L107.967 245.042C109.583 244.103 111.418 243.609 113.287 243.609C115.155 243.609 116.99 244.103 118.606 245.042L194.509 289.142C195.358 289.627 196.008 290.398 196.343 291.318C198.519 295.34 199.253 304.474 196.217 310.293C195.817 311.054 195.218 311.693 194.484 312.14L118.087 356.265C116.47 357.2 114.636 357.693 112.768 357.693C110.9 357.693 109.065 357.2 107.448 356.265L31.5454 312.166C30.799 311.73 30.2033 311.077 29.8376 310.293C26.7888 304.474 27.5226 295.34 29.6984 291.318Z" fill="white"/>
<path opacity="0.3" d="M29.6984 291.317C29.3353 292.259 29.3191 293.3 29.6529 294.252C29.9867 295.205 30.6486 296.008 31.5201 296.517L107.423 340.616C109.04 341.551 110.875 342.044 112.743 342.044C114.61 342.044 116.445 341.551 118.062 340.616L194.496 296.479C195.367 295.979 196.032 295.184 196.37 294.238C196.709 293.292 196.699 292.257 196.343 291.317C198.519 295.34 199.253 304.474 196.217 310.293C195.817 311.054 195.218 311.692 194.484 312.14L118.087 356.265C116.47 357.2 114.636 357.692 112.768 357.692C110.9 357.692 109.065 357.2 107.448 356.265L31.5454 312.165C30.799 311.729 30.2033 311.076 29.8376 310.293C26.7888 304.474 27.5226 295.34 29.6984 291.317Z" fill="black"/>
<path d="M23.3859 207.52L95.6581 165.774C96.3 165.4 97.028 165.2 97.7707 165.192H98.1249C104.728 165.255 109.903 169.189 113.736 173.82C113.797 173.872 113.852 173.932 113.9 173.997C114.285 174.473 114.565 175.024 114.722 175.616L135.457 252.784C136.072 254.976 135.943 257.311 135.089 259.421C134.235 261.532 132.705 263.3 130.738 264.448L58.4783 306.194C57.7127 306.637 56.8299 306.836 55.9482 306.763C47.6748 305.903 42.8044 300.792 40.3628 298.098C39.8996 297.58 39.5658 296.96 39.3887 296.289L18.6546 219.121C18.0555 216.936 18.1946 214.615 19.0501 212.517C19.9056 210.42 21.4298 208.663 23.3859 207.52Z" fill="#0B8BE6"/>
<path opacity="0.2" d="M23.3859 207.52L95.6581 165.774C96.3 165.4 97.028 165.2 97.7707 165.192H98.1249C104.728 165.255 109.903 169.189 113.736 173.82C113.797 173.872 113.852 173.932 113.9 173.997C114.285 174.473 114.565 175.024 114.722 175.616L135.457 252.784C136.072 254.976 135.943 257.311 135.089 259.421C134.235 261.532 132.705 263.3 130.738 264.448L58.4783 306.194C57.7127 306.637 56.8299 306.836 55.9482 306.763C47.6748 305.903 42.8044 300.792 40.3628 298.098C39.8996 297.58 39.5658 296.96 39.3887 296.289L18.6546 219.121C18.0555 216.936 18.1946 214.615 19.0501 212.517C19.9056 210.42 21.4298 208.663 23.3859 207.52Z" fill="white"/>
<path opacity="0.1" d="M23.3859 207.52L95.6581 165.774C96.3 165.4 97.028 165.2 97.7707 165.192H98.125C104.729 165.255 109.903 169.189 113.736 173.82C113.062 173.082 112.157 172.597 111.169 172.445C110.182 172.293 109.173 172.484 108.309 172.985L36.0364 214.731C33.9816 215.925 32.4037 217.793 31.5708 220.019L18.9203 212.732C19.769 210.536 21.3451 208.696 23.3859 207.52Z" fill="black"/>
<path opacity="0.2" d="M31.5707 219.956C30.7966 221.977 30.6858 224.193 31.2545 226.281L51.9886 303.449C52.2221 304.326 52.7225 305.109 53.4206 305.689C54.1187 306.27 54.9799 306.618 55.885 306.688C47.6115 305.827 42.7411 300.716 40.2996 298.022C39.8363 297.504 39.5025 296.884 39.3255 296.213L18.5913 219.045C18.0343 216.953 18.1539 214.739 18.9329 212.72L31.5707 219.956Z" fill="black"/>
<path d="M183.351 347.157C182.51 351.588 182.031 356.082 181.922 360.591L178.81 359.326C177.301 358.748 175.655 358.63 174.079 358.986C172.504 359.341 171.068 360.155 169.954 361.325L169.803 361.49C169.235 362.087 168.459 362.442 167.636 362.48C166.813 362.518 166.007 362.235 165.387 361.692C165.056 361.405 164.789 361.052 164.602 360.655C164.414 360.259 164.311 359.828 164.3 359.39L163.869 345.879L183.351 347.157Z" fill="#FFA8A7"/>
<path d="M171.106 397.341C177.684 404.388 189.816 410.548 198.62 404.539L197.634 406.779C188.778 412.788 176.697 406.627 170.119 399.593C163.541 392.559 167.804 387.664 161.883 381.414C159.648 379.284 157.9 376.694 156.76 373.824C157.026 373.154 157.266 372.268 157.582 371.294C158.86 374.227 160.651 376.909 162.87 379.213C168.79 385.425 164.515 390.308 171.106 397.341Z" fill="white"/>
<path d="M160.821 363.894C161.84 362.453 162.547 360.816 162.895 359.086C162.955 358.69 163.099 358.311 163.317 357.975C163.535 357.639 163.823 357.354 164.16 357.138L164.236 359.403C164.254 360.033 164.458 360.643 164.823 361.158C165.188 361.672 165.697 362.066 166.286 362.291C166.875 362.515 167.518 362.561 168.132 362.42C168.747 362.28 169.306 361.961 169.739 361.503L169.891 361.338C171.005 360.168 172.44 359.354 174.016 358.999C175.592 358.643 177.238 358.761 178.746 359.339L181.972 360.604C182.447 360.791 182.855 361.116 183.142 361.539C183.429 361.961 183.581 362.46 183.579 362.97C183.364 372.205 187.678 384.476 192.207 391.206C196.862 393.141 200.872 399.479 198.823 404.122L198.62 404.59C189.765 410.599 177.684 404.438 171.106 397.392C164.527 390.346 168.791 385.475 162.87 379.226C160.651 376.922 158.86 374.24 157.582 371.307C158.311 368.697 159.401 366.202 160.821 363.894Z" fill="#0B8BE6"/>
<path opacity="0.2" d="M160.821 363.894C161.84 362.453 162.547 360.816 162.895 359.086C162.955 358.69 163.099 358.311 163.317 357.975C163.535 357.639 163.823 357.354 164.16 357.138L164.236 359.403C164.254 360.033 164.458 360.643 164.823 361.158C165.188 361.672 165.697 362.066 166.286 362.291C166.875 362.515 167.518 362.561 168.132 362.42C168.747 362.28 169.306 361.961 169.739 361.503L169.891 361.338C171.005 360.168 172.44 359.354 174.016 358.999C175.592 358.643 177.238 358.761 178.746 359.339L181.972 360.604C182.447 360.791 182.855 361.116 183.142 361.539C183.429 361.961 183.581 362.46 183.579 362.97C183.364 372.205 187.678 384.476 192.207 391.206C196.862 393.141 200.872 399.479 198.823 404.122L198.62 404.59C189.765 410.599 177.684 404.438 171.106 397.392C164.527 390.346 168.791 385.475 162.87 379.226C160.651 376.922 158.86 374.24 157.582 371.307C158.311 368.697 159.401 366.202 160.821 363.894Z" fill="white"/>
<path d="M173.75 377.226C173.618 377.291 173.476 377.33 173.33 377.339C173.183 377.349 173.037 377.33 172.898 377.283C172.76 377.236 172.632 377.162 172.521 377.066C172.411 376.969 172.321 376.852 172.257 376.72C172.188 376.592 172.146 376.452 172.132 376.308C172.117 376.164 172.132 376.018 172.174 375.879C172.216 375.741 172.286 375.612 172.378 375.5C172.47 375.388 172.584 375.295 172.712 375.228C174.641 374.136 176.821 373.562 179.037 373.562C181.254 373.562 183.433 374.136 185.363 375.228C185.552 375.949 185.768 376.67 185.983 377.391C184.133 376.305 182.032 375.72 179.888 375.691C177.743 375.662 175.628 376.191 173.75 377.226Z" fill="white"/>
<path d="M172.092 372.23C171.827 372.367 171.518 372.394 171.234 372.304C170.949 372.214 170.712 372.014 170.574 371.749C170.437 371.484 170.41 371.175 170.5 370.89C170.59 370.606 170.79 370.368 171.055 370.231C173.076 369.127 175.345 368.558 177.648 368.578C179.951 368.598 182.21 369.206 184.211 370.345C184.338 371.091 184.502 371.85 184.667 372.609C180.821 370.585 176.95 369.776 172.092 372.23Z" fill="white"/>
<path d="M175.483 382.198C175.217 382.326 174.912 382.345 174.633 382.25C174.354 382.156 174.123 381.955 173.99 381.692C173.856 381.432 173.83 381.129 173.917 380.85C174.005 380.57 174.199 380.337 174.458 380.2C176.342 379.137 178.465 378.568 180.628 378.546C182.791 378.524 184.924 379.049 186.83 380.073C187.108 380.857 187.399 381.616 187.703 382.376C185.856 381.29 183.758 380.704 181.616 380.673C179.474 380.642 177.361 381.167 175.483 382.198Z" fill="white"/>
<path d="M192.207 391.155C196.862 393.091 200.872 399.429 198.823 404.071L198.62 404.539C189.942 410.46 178.063 404.539 171.409 397.658C176.95 386.791 188.538 389.498 192.207 391.155Z" fill="white"/>
<path d="M177.431 387.044C177.3 387.109 177.157 387.147 177.011 387.157C176.865 387.166 176.718 387.147 176.579 387.1C176.441 387.053 176.313 386.979 176.203 386.883C176.093 386.786 176.003 386.669 175.938 386.538C175.806 386.278 175.78 385.978 175.865 385.699C175.95 385.421 176.139 385.187 176.393 385.045C178.286 383.983 180.416 383.417 182.586 383.399C184.755 383.381 186.894 383.913 188.804 384.944C189.196 385.804 189.601 386.626 190.069 387.474C186.172 385.399 182.301 384.627 177.431 387.044Z" fill="white"/>
<path d="M197.191 374.001C198.201 378.377 199.567 382.663 201.277 386.816L197.899 387.006C196.291 387.091 194.744 387.649 193.453 388.61C192.161 389.571 191.182 390.892 190.638 392.407L190.562 392.61C190.283 393.385 189.715 394.022 188.977 394.387C188.239 394.753 187.388 394.819 186.602 394.571C186.184 394.444 185.796 394.232 185.465 393.946C185.134 393.661 184.866 393.309 184.68 392.913L178.81 380.718L197.191 374.001Z" fill="#FFA8A7"/>
<path d="M206.249 424.869C215.104 428.664 228.691 429.398 234.32 420.34V422.794C228.691 431.839 215.117 431.105 206.249 427.323C197.381 423.541 199.316 417.342 191.372 414.015C188.465 412.959 185.82 411.289 183.617 409.119C183.617 408.398 183.465 407.5 183.339 406.45C185.692 408.619 188.412 410.354 191.372 411.573C199.316 414.9 197.381 421.086 206.249 424.869Z" fill="white"/>
<path d="M183.339 398.416C183.704 396.689 183.704 394.905 183.339 393.179C183.236 392.786 183.22 392.377 183.29 391.977C183.359 391.578 183.514 391.198 183.743 390.864L184.73 392.913C184.917 393.309 185.184 393.66 185.516 393.946C185.847 394.231 186.234 394.444 186.653 394.57C187.438 394.818 188.289 394.753 189.028 394.387C189.766 394.022 190.334 393.385 190.613 392.61L190.688 392.407C191.232 390.892 192.211 389.57 193.503 388.609C194.795 387.648 196.342 387.09 197.95 387.005L201.391 386.816C201.901 386.797 202.405 386.934 202.836 387.207C203.267 387.48 203.606 387.877 203.807 388.346C207.349 396.873 216.242 406.348 223.099 410.7C228.159 410.573 234.371 414.76 234.371 419.833V420.339C228.741 429.397 215.167 428.651 206.299 424.868C197.431 421.086 199.367 414.9 191.422 411.573C188.463 410.353 185.743 408.619 183.389 406.449C183.001 403.787 182.984 401.083 183.339 398.416Z" fill="#0B8BE6"/>
<path opacity="0.2" d="M183.339 398.416C183.704 396.689 183.704 394.905 183.339 393.179C183.236 392.786 183.22 392.377 183.29 391.977C183.359 391.578 183.514 391.198 183.743 390.864L184.73 392.913C184.917 393.309 185.184 393.66 185.516 393.946C185.847 394.231 186.234 394.444 186.653 394.57C187.438 394.818 188.289 394.753 189.028 394.387C189.766 394.022 190.334 393.385 190.613 392.61L190.688 392.407C191.232 390.892 192.211 389.57 193.503 388.609C194.795 387.648 196.342 387.09 197.95 387.005L201.391 386.816C201.901 386.797 202.405 386.934 202.836 387.207C203.267 387.48 203.606 387.877 203.807 388.346C207.349 396.873 216.242 406.348 223.099 410.7C228.159 410.573 234.371 414.76 234.371 419.833V420.339C228.741 429.397 215.167 428.651 206.299 424.868C197.431 421.086 199.367 414.9 191.422 411.573C188.463 410.353 185.743 408.619 183.389 406.449C183.001 403.787 182.984 401.083 183.339 398.416Z" fill="white"/>
<path d="M200.505 405.412C200.317 405.645 200.045 405.794 199.747 405.826C199.449 405.858 199.151 405.771 198.918 405.583C198.684 405.395 198.535 405.122 198.503 404.824C198.471 404.527 198.559 404.228 198.747 403.995C200.082 402.228 201.849 400.835 203.878 399.948C205.908 399.062 208.131 398.713 210.335 398.935C210.803 399.53 211.283 400.099 211.777 400.668C209.648 400.416 207.49 400.72 205.515 401.552C203.539 402.383 201.813 403.713 200.505 405.412Z" fill="white"/>
<path d="M197.001 401.49C196.805 401.689 196.543 401.808 196.264 401.824C195.985 401.84 195.711 401.752 195.493 401.577C195.276 401.402 195.131 401.153 195.087 400.877C195.043 400.602 195.103 400.32 195.255 400.086C196.656 398.258 198.502 396.819 200.617 395.906C202.732 394.994 205.045 394.638 207.337 394.874C207.767 395.506 208.209 396.139 208.665 396.759C204.338 396.455 200.467 397.277 197.001 401.49Z" fill="white"/>
<path d="M204.111 409.232C203.915 409.431 203.652 409.55 203.374 409.566C203.095 409.582 202.82 409.494 202.603 409.319C202.385 409.144 202.241 408.895 202.197 408.619C202.153 408.344 202.213 408.062 202.365 407.828C203.667 406.105 205.383 404.739 207.353 403.854C209.323 402.97 211.484 402.596 213.636 402.768C214.206 403.375 214.788 403.957 215.37 404.526C213.246 404.27 211.093 404.57 209.12 405.394C207.146 406.219 205.421 407.541 204.111 409.232Z" fill="white"/>
<path d="M223.086 410.7C228.146 410.573 234.358 414.76 234.358 419.833V420.339C228.804 429.195 215.559 428.663 206.691 425.033C207.336 412.85 219.025 410.649 223.086 410.7Z" fill="white"/>
<path d="M207.906 412.889C207.716 413.11 207.447 413.248 207.157 413.276C206.867 413.303 206.577 413.216 206.35 413.034C206.122 412.852 205.973 412.589 205.936 412.3C205.898 412.011 205.974 411.719 206.147 411.484C207.453 409.756 209.175 408.386 211.152 407.502C213.129 406.617 215.298 406.246 217.457 406.424C218.165 407.057 218.861 407.689 219.57 408.208C215.205 407.854 211.334 408.663 207.906 412.889Z" fill="white"/>
<path d="M145.096 258.667L189.487 283.424C193.509 285.664 196.727 289.111 198.686 293.278C200.645 297.446 201.246 302.123 200.404 306.65L191.789 353.001L198.861 375.443C192.725 383.628 178.81 384.045 178.81 384.045C171.004 368.397 165.274 361.743 160.846 348.624C156.418 335.506 153.42 326.435 153.42 326.435L116.557 316.315C108.126 314.024 100.576 309.258 94.8822 302.633C89.1881 296.007 85.6114 287.827 84.6141 279.148C83.9943 273.581 83.9563 269.774 83.9563 269.774L145.096 258.667Z" fill="#455A64"/>
<path d="M145.096 258.667L189.487 283.424C193.509 285.664 196.727 289.111 198.686 293.278C200.645 297.446 201.246 302.123 200.404 306.65L191.789 353.001L198.861 375.443C192.725 383.628 178.81 384.045 178.81 384.045C171.004 368.397 165.274 361.743 160.846 348.624C156.418 335.506 153.42 326.435 153.42 326.435L116.557 316.315C108.126 314.024 100.576 309.258 94.8822 302.633C89.1881 296.007 85.6114 287.827 84.6141 279.148C83.9943 273.581 83.9563 269.774 83.9563 269.774L145.096 258.667Z" fill="#37474F"/>
<path opacity="0.2" d="M144.767 271.14C144.767 276.1 143.01 280.901 139.808 284.689L171.118 304.297C175.717 307.171 179.122 311.61 180.707 316.796L191.789 353.001L181.795 312.634C180.644 307.988 177.72 303.979 173.648 301.463L144.729 283.601C147.69 276.226 144.767 271.14 144.767 271.14Z" fill="black"/>
<path d="M140.302 182.422H141.44C149.106 182.498 158.809 187.722 163.553 201.094L181.972 236.768L160.947 246.092L149.435 212.429L140.302 182.422Z" fill="#0B8BE6"/>
<g opacity="0.2">
<path d="M140.302 182.422H141.44C149.106 182.498 158.809 187.722 163.553 201.094L181.972 236.768L160.947 246.092L149.435 212.429L140.302 182.422Z" fill="black"/>
</g>
<path opacity="0.2" d="M155.065 206.09C156.532 210.303 156.621 214.845 156.861 219.31C157.101 223.776 157.607 229.14 159.644 233.112C161.892 231.547 164.588 230.754 167.325 230.852C170.063 230.95 172.694 231.934 174.825 233.656C176.348 234.939 177.519 236.589 178.228 238.45L160.972 246.104L149.461 212.441L143.806 193.87C146.399 195.059 148.73 196.751 150.663 198.849C152.596 200.947 154.092 203.409 155.065 206.09Z" fill="black"/>
<path d="M160.745 239.665C161.551 237.684 162.846 235.938 164.51 234.593C166.174 233.248 168.151 232.347 170.258 231.974C172.455 231.753 174.673 232.076 176.716 232.914C178.759 233.752 180.564 235.08 181.972 236.781C184.262 239.552 183.908 243.309 182.453 246.598C181.242 249.155 179.183 251.215 176.625 252.425C174.067 253.636 171.169 253.924 168.424 253.239C162.997 251.721 158.695 244.928 160.745 239.665Z" fill="#0B8BE6"/>
<g opacity="0.2">
<path d="M160.745 239.665C161.551 237.684 162.846 235.938 164.51 234.593C166.174 233.248 168.151 232.347 170.258 231.974C172.455 231.753 174.673 232.076 176.716 232.914C178.759 233.752 180.564 235.08 181.972 236.781C184.262 239.552 183.908 243.309 182.453 246.598C181.242 249.155 179.183 251.215 176.625 252.425C174.067 253.636 171.169 253.924 168.424 253.239C162.997 251.721 158.695 244.928 160.745 239.665Z" fill="black"/>
</g>
<path d="M83.2479 273.303C91.1292 280.894 128.941 282.247 148.233 263.879C146.386 250.912 146.968 237.022 148.233 223.283C149.498 209.545 157.494 185.522 142.161 182.726C121.68 178.728 111.345 182.41 94.6207 186.762C80.0094 211.101 82.0208 247.534 83.2479 273.303Z" fill="#0B8BE6"/>
<path opacity="0.2" d="M83.2479 273.303C91.1292 280.894 128.941 282.247 148.233 263.879C146.386 250.912 146.968 237.022 148.233 223.283C149.498 209.545 157.494 185.522 142.161 182.726C121.68 178.728 111.345 182.41 94.6207 186.762C80.0094 211.101 82.0208 247.534 83.2479 273.303Z" fill="black"/>
<path opacity="0.2" d="M105.627 246.269C104.817 232.759 105.627 209.773 101.186 203.055L88.9913 198.666C81.5022 219.4 81.9323 245.03 82.8684 265.814C91.0846 270.546 100.082 273.768 109.434 275.327C113.331 276.049 117.265 276.593 121.212 276.909C131.117 274.859 140.972 270.748 148.208 263.853C147.955 262.12 147.765 260.349 147.601 258.578C138.051 258.044 128.617 256.223 119.555 253.164C117.866 251.081 115.747 249.386 113.343 248.196C110.94 247.007 108.308 246.349 105.627 246.269Z" fill="black"/>
<path opacity="0.15" d="M139.049 272.392C139.049 272.392 139.049 272.392 139.049 272.329C139.049 272.266 139.049 272.329 139.049 272.253V272.19V272.114C139.049 272.114 139.049 272.114 139.049 272.038V271.975L152.813 246.357L154.711 248.521L140.947 274.138C140.859 274.282 140.799 274.44 140.77 274.606C140.755 274.654 140.754 274.705 140.765 274.753C140.776 274.802 140.799 274.847 140.833 274.884L138.935 272.734V272.632C138.935 272.632 138.935 272.569 138.935 272.544L139.049 272.392Z" fill="white"/>
<path opacity="0.2" d="M153.041 246.193V246.117V246.041V245.965V245.877V245.801V245.712L153.104 245.636V245.56V245.484V245.421L153.306 245.244H153.37H153.445H153.534H153.623H153.711L169.537 236.389H169.625H169.714H169.802H169.891H169.967H170.056H170.131H170.22H170.309H170.599C170.644 236.388 170.689 236.397 170.73 236.414C170.771 236.432 170.809 236.458 170.84 236.49L172.725 238.653C172.649 238.552 172.484 238.527 172.257 238.577C171.951 238.656 171.658 238.775 171.384 238.931L155.558 247.787C155.246 247.966 154.946 248.164 154.66 248.381C154.356 248.622 154.065 248.862 153.787 249.128C153.522 249.377 153.272 249.644 153.041 249.925C152.844 250.16 152.67 250.415 152.522 250.684L150.624 248.52L153.041 246.193Z" fill="white"/>
<path d="M160.998 255.934C160.998 255.934 151.004 260.994 146.576 258.211L148.917 253.86C142.628 253.762 136.499 255.845 131.573 259.755C122.122 258.026 112.897 255.238 104.071 251.443L100.933 250.178L85.0316 263.398C95.873 270.419 147.019 275.226 152.332 271.95C157.645 268.673 161.719 262.171 160.998 255.934Z" fill="#FFA8A7"/>
<path d="M171.801 243.043C172.137 244.71 172.331 246.403 172.383 248.103C171.974 252.187 170.242 256.025 167.45 259.033C166.869 259.692 166.141 260.203 165.324 260.526C164.916 260.677 164.476 260.721 164.046 260.652C163.616 260.583 163.211 260.405 162.87 260.134C162.274 259.429 161.967 258.525 162.01 257.604C161.876 256.221 161.953 254.826 162.238 253.467C162.521 252.094 163.294 250.87 164.413 250.026C165.284 249.497 166.214 249.072 167.184 248.761C168.132 248.364 168.976 247.753 169.651 246.977L171.801 243.043Z" fill="#FFA8A7"/>
<path d="M100.933 250.14L101.414 207.381C101.479 201.603 100.059 195.906 97.2899 190.834L94.6207 186.773C92.4921 186.986 90.4506 187.728 88.6827 188.932C86.9148 190.137 85.4769 191.765 84.5003 193.668C80.8023 200.02 79.0885 207.334 79.5793 214.668C79.5793 214.668 77.8968 258.742 85.0316 263.359L100.933 250.14Z" fill="#0B8BE6"/>
<path d="M111.61 251.885L100.933 250.14L85.0316 263.359C89.6996 266.965 100.883 270.836 108.258 272.645C110.518 273.198 112.884 273.142 115.114 272.48L116.379 272.114L118.821 255.592C116.862 253.636 114.341 252.34 111.61 251.885Z" fill="#0B8BE6"/>
<g opacity="0.2">
<path d="M100.933 250.14L101.414 207.381C101.479 201.603 100.059 195.906 97.2899 190.834L94.6207 186.773C92.4921 186.986 90.4506 187.728 88.6827 188.932C86.9148 190.137 85.4769 191.765 84.5003 193.668C80.8023 200.02 79.0885 207.334 79.5793 214.668C79.5793 214.668 77.8968 258.742 85.0316 263.359L100.933 250.14Z" fill="black"/>
<path d="M111.61 251.885L100.933 250.14L85.0315 263.359C89.6996 266.965 100.883 270.836 108.258 272.645C110.518 273.198 112.884 273.142 115.114 272.48L116.379 272.114L118.821 255.592C116.862 253.636 114.341 252.34 111.61 251.885Z" fill="black"/>
</g>
<path d="M128.208 259.134C123.363 261.601 125.842 271.367 126.791 272.114L128.208 272.24C127.975 272.634 127.635 272.954 127.227 273.162C126.82 273.371 126.361 273.459 125.905 273.417C123.312 273.151 118.163 272.582 116.316 272.152C111.345 264.675 116.898 256.668 118.77 255.592C121.807 256.49 124.779 257.148 126.361 257.465C126.699 257.534 127.018 257.676 127.296 257.881C127.573 258.087 127.803 258.35 127.967 258.654L128.208 259.134Z" fill="#0B8BE6"/>
<path opacity="0.3" d="M128.208 259.134C123.363 261.601 125.842 271.367 126.791 272.114L128.208 272.24C127.975 272.634 127.635 272.954 127.227 273.162C126.82 273.371 126.361 273.459 125.905 273.417C123.312 273.151 118.163 272.582 116.316 272.152C111.345 264.675 116.898 256.668 118.77 255.592C121.807 256.49 124.779 257.148 126.361 257.465C126.699 257.534 127.018 257.676 127.296 257.881C127.573 258.087 127.803 258.35 127.967 258.654L128.208 259.134Z" fill="black"/>
<path d="M109.915 184.294C109.566 184.97 109.373 185.715 109.351 186.475C109.329 187.235 109.479 187.99 109.789 188.684C110.431 190.067 111.373 191.29 112.546 192.264C116.038 195.351 120.437 197.22 125.083 197.59C127.587 197.876 130.121 197.437 132.382 196.325C133.501 195.748 134.458 194.898 135.163 193.855C135.868 192.812 136.299 191.608 136.418 190.354C136.38 188.884 135.93 187.454 135.121 186.227C134.312 184.999 133.174 184.023 131.838 183.409C129.138 182.249 126.182 181.813 123.261 182.144C120.528 182.51 117.77 182.662 115.013 182.599C113.116 182.321 111.016 182.409 109.915 184.294Z" fill="#0B8BE6"/>
<path opacity="0.3" d="M109.915 184.294C109.566 184.97 109.373 185.715 109.351 186.475C109.329 187.235 109.479 187.99 109.789 188.684C110.431 190.067 111.373 191.29 112.546 192.264C116.038 195.351 120.437 197.22 125.083 197.59C127.587 197.876 130.121 197.437 132.382 196.325C133.501 195.748 134.458 194.898 135.163 193.855C135.868 192.812 136.299 191.608 136.418 190.354C136.38 188.884 135.93 187.454 135.121 186.227C134.312 184.999 133.174 184.023 131.838 183.409C129.138 182.249 126.182 181.813 123.261 182.144C120.528 182.51 117.77 182.662 115.013 182.599C113.116 182.321 111.016 182.409 109.915 184.294Z" fill="black"/>
<path d="M108.169 152.504L119.315 168.95H119.593L107.701 151.441C107.701 151.441 88.6118 159.626 89.9907 165.483C90.0216 165.557 90.047 165.633 90.0666 165.711L90.2184 166.091C90.2137 166.128 90.2137 166.167 90.2184 166.205L90.5979 167.166C90.5238 166.999 90.4646 166.825 90.4208 166.647C89.0799 160.714 108.169 152.504 108.169 152.504Z" fill="#0B8BE6"/>
<path opacity="0.1" d="M108.169 152.504L119.315 168.95H119.593L107.701 151.441C107.701 151.441 88.6118 159.626 89.9907 165.483C90.0216 165.557 90.047 165.633 90.0666 165.711L90.2184 166.091C90.2137 166.128 90.2137 166.167 90.2184 166.205L90.5979 167.166C90.5238 166.999 90.4646 166.825 90.4208 166.647C89.0799 160.714 108.169 152.504 108.169 152.504Z" fill="black"/>
<path d="M119.352 168.924L108.207 152.478C108.207 152.478 89.1178 160.676 90.4967 166.52C90.5404 166.698 90.5997 166.871 90.6738 167.039C93.634 174.123 120.086 169.986 120.086 169.986L119.352 168.924Z" fill="#0B8BE6"/>
<path opacity="0.3" d="M119.352 168.924L108.207 152.478C108.207 152.478 89.1178 160.676 90.4967 166.52C90.5404 166.698 90.5997 166.871 90.6738 167.039C93.634 174.123 120.086 169.986 120.086 169.986L119.352 168.924Z" fill="black"/>
<path d="M114.153 178.817C111.521 174.017 109.469 168.921 108.043 163.636C106.778 158.298 103.147 146.444 105.728 141.612C107.676 137.981 113.04 134.312 116.645 132.326C120.251 130.34 124.969 130.947 128.992 130.074C132.526 129.199 136.181 128.917 139.808 129.239C143.414 129.682 147.955 136.197 150.359 138.93C154.154 143.231 154.28 150.024 151.548 155.084C148.815 160.145 143.743 163.611 138.328 165.572C132.914 167.532 127.132 168.102 121.414 168.722C119.049 171.884 116.519 175.629 114.153 178.817Z" fill="#263238"/>
<path d="M144.451 126.393C138.834 121.333 130.346 120.321 122.945 122.269C116.683 123.926 109.422 125.861 105.804 131.124C102.186 136.387 104.02 143.876 104.437 151.365C110.972 146.149 118.709 142.652 126.943 141.194C127.917 141.017 128.916 140.89 129.928 140.789L129.435 138.335C129.29 137.636 129.298 136.914 129.456 136.218C129.615 135.523 129.921 134.869 130.354 134.302C130.787 133.734 131.336 133.267 131.966 132.93C132.595 132.594 133.289 132.396 134.002 132.351C135.136 132.288 136.274 132.313 137.405 132.427C138.977 132.589 140.461 133.238 141.647 134.283C142.833 135.329 143.663 136.719 144.021 138.259C144.274 139.398 144.527 140.549 144.767 141.586C147.567 142.079 150.328 142.772 153.028 143.661C151.181 137.5 149.245 130.719 144.451 126.393Z" fill="#455A64"/>
<path d="M143.844 137.741C139.076 136.663 134.144 136.517 129.321 137.311C129.318 137.655 129.352 137.998 129.422 138.335L129.916 140.79C134.875 140.384 139.867 140.652 144.755 141.587C144.514 140.549 144.261 139.398 144.008 138.259C143.958 138.082 143.894 137.943 143.844 137.741Z" fill="#37474F"/>
<path d="M132.307 177.159L131.573 185.331C131.544 185.968 131.707 186.598 132.041 187.14C132.492 187.992 132.664 188.964 132.535 189.919C132.406 190.874 131.981 191.765 131.32 192.466C130.271 193.274 128.988 193.718 127.664 193.731C125.176 193.865 122.687 193.472 120.361 192.578C118.035 191.685 115.924 190.31 114.166 188.545C113.812 188.172 113.536 187.733 113.354 187.253C113.171 186.774 113.086 186.262 113.103 185.749L113.634 165.027L132.307 177.159Z" fill="#FFA8A7"/>
<path d="M132.307 177.159L131.573 185.331C131.544 185.968 131.707 186.598 132.041 187.14C132.492 187.992 132.664 188.964 132.535 189.919C132.406 190.874 131.981 191.765 131.32 192.466C130.271 193.274 128.988 193.718 127.664 193.731C125.176 193.865 122.687 193.472 120.361 192.578C118.035 191.685 115.924 190.31 114.166 188.545C113.812 188.172 113.536 187.733 113.354 187.253C113.171 186.774 113.086 186.262 113.103 185.749L113.634 165.027L132.307 177.159Z" fill="#FFA8A7"/>
<path opacity="0.2" d="M119.719 181.22C121.78 182.996 124.286 184.177 126.968 184.636C128.556 184.856 130.173 184.695 131.687 184.168L132.306 177.172L113.634 165.002L113.445 172.593C114.773 175.953 116.931 178.922 119.719 181.22Z" fill="black"/>
<path d="M139.252 151.859C141.012 151.031 142.497 149.713 143.528 148.063C139.849 149.743 135.915 150.794 131.889 151.175C133.432 149.835 134.9 148.316 136.443 146.975C133.684 147.909 130.847 148.599 127.967 149.038C129.574 148.212 131.005 147.082 132.18 145.71C127.664 147.82 122.821 149.142 117.86 149.619C117.639 149.917 117.495 150.265 117.442 150.631L116.683 156.514C116.692 156.932 116.607 157.347 116.434 157.728C116.261 158.109 116.004 158.446 115.684 158.715C115.336 158.878 114.948 158.933 114.568 158.872C114.189 158.811 113.837 158.638 113.559 158.374C113.013 157.828 112.582 157.179 112.293 156.463C111.68 154.98 110.858 153.591 109.852 152.339C109.341 151.717 108.704 151.211 107.981 150.855C107.259 150.499 106.469 150.302 105.665 150.277C103.046 150.341 101.047 152.959 100.769 155.565C100.641 156.912 100.85 158.269 101.378 159.515C101.906 160.761 102.736 161.855 103.792 162.7C104.881 163.473 106.146 163.961 107.472 164.12C108.797 164.279 110.142 164.104 111.383 163.611C110.193 168.152 112.572 173.023 116.101 176.11C119.631 179.196 124.16 180.866 128.575 182.435C130.991 183.308 133.546 184.193 136.064 183.7C138.117 183.238 139.956 182.102 141.288 180.474C142.614 178.853 143.7 177.051 144.514 175.123C148.498 166.523 150.766 157.228 151.194 147.76C147.826 150.501 143.593 151.954 139.252 151.859Z" fill="#FFA8A7"/>
<path d="M135.962 161.118L139.656 170.884L133.192 170.96L135.962 161.118Z" fill="#F28F8F"/>
<path d="M126.032 172.845L132.812 175.641C132.293 176.423 131.534 177.016 130.648 177.328C129.763 177.641 128.799 177.657 127.904 177.374C126.247 176.742 125.678 174.629 126.032 172.845Z" fill="#F28F8F"/>
<path opacity="0.3" d="M126.032 172.845L132.812 175.641C132.293 176.423 131.534 177.016 130.648 177.328C129.763 177.641 128.799 177.657 127.904 177.374C126.247 176.742 125.678 174.629 126.032 172.845Z" fill="black"/>
<path d="M130.207 177.45C129.449 177.654 128.647 177.628 127.904 177.374C127.281 177.069 126.761 176.587 126.41 175.989C126.059 175.391 125.892 174.702 125.931 174.009C126.948 173.929 127.957 174.24 128.752 174.88C129.547 175.52 130.068 176.439 130.207 177.45Z" fill="#F28F8F"/>
<path d="M126.829 159.335C126.698 159.801 126.758 160.301 126.995 160.723C127.232 161.145 127.628 161.456 128.094 161.587C128.56 161.718 129.06 161.658 129.482 161.421C129.904 161.183 130.215 160.788 130.346 160.322C130.411 160.091 130.429 159.849 130.401 159.611C130.372 159.373 130.297 159.143 130.18 158.934C130.062 158.725 129.905 158.541 129.716 158.393C129.527 158.244 129.312 158.135 129.081 158.07C128.85 158.005 128.608 157.986 128.37 158.015C128.132 158.043 127.902 158.119 127.693 158.236C127.484 158.353 127.3 158.511 127.152 158.7C127.003 158.888 126.894 159.104 126.829 159.335Z" fill="#263238"/>
<path d="M141.402 162.384C141.271 162.85 141.331 163.349 141.568 163.772C141.806 164.194 142.201 164.505 142.667 164.636C143.134 164.766 143.633 164.707 144.055 164.469C144.477 164.232 144.788 163.837 144.919 163.37C144.984 163.14 145.003 162.898 144.974 162.66C144.945 162.422 144.87 162.192 144.753 161.983C144.635 161.773 144.478 161.59 144.289 161.441C144.101 161.293 143.885 161.183 143.654 161.119C143.423 161.054 143.182 161.035 142.944 161.064C142.705 161.092 142.475 161.167 142.266 161.285C142.057 161.402 141.873 161.56 141.725 161.748C141.577 161.937 141.467 162.153 141.402 162.384Z" fill="#263238"/>
<path d="M145.374 153.389L148.512 157.184C148.825 156.752 148.994 156.232 148.994 155.698C148.994 155.164 148.825 154.643 148.512 154.211C148.118 153.794 147.616 153.496 147.061 153.351C146.506 153.205 145.922 153.218 145.374 153.389Z" fill="#263238"/>
<path d="M129.22 150.378L124.564 151.985C124.522 151.456 124.647 150.927 124.922 150.473C125.196 150.019 125.607 149.663 126.095 149.455C126.65 149.3 127.237 149.305 127.79 149.468C128.342 149.632 128.838 149.947 129.22 150.378Z" fill="#263238"/>
<path d="M24.9798 242.74L101.199 301.792C103.525 303.592 105.457 305.85 106.876 308.426C108.294 311.003 109.169 313.842 109.447 316.77L117.999 406.361C117.527 406.8 116.923 407.069 116.282 407.127C115.64 407.184 114.998 407.026 114.457 406.677L99.2761 316.732C99.0215 315.198 98.4373 313.738 97.5637 312.452C96.6901 311.165 95.5479 310.084 94.2159 309.281L26.8394 268.914C18.0094 263.664 16.4533 245.105 24.9798 242.74Z" fill="#455A64"/>
<path opacity="0.3" d="M24.9798 242.74L101.199 301.792C103.525 303.592 105.457 305.85 106.876 308.426C108.294 311.003 109.169 313.842 109.447 316.77L117.999 406.361C117.527 406.8 116.923 407.069 116.282 407.127C115.64 407.184 114.998 407.026 114.457 406.677L99.2761 316.732C99.0215 315.198 98.4373 313.738 97.5637 312.452C96.6901 311.165 95.5479 310.084 94.2159 309.281L26.8394 268.914C18.0094 263.664 16.4533 245.105 24.9798 242.74Z" fill="white"/>
<path d="M139.049 272.468C139.049 272.468 139.049 272.531 139.049 272.557V272.658L140.947 274.808C140.947 274.808 140.947 274.72 140.947 274.669C141.023 274.998 141.503 274.985 142.326 274.53L158.151 265.675C159.375 264.964 160.415 263.976 161.188 262.79L175.015 237.135C175.23 236.705 175.23 236.452 175.015 236.338H175.078L173.193 234.175C173.162 234.143 173.124 234.117 173.083 234.099C173.042 234.082 172.997 234.073 172.952 234.074H172.662H172.573H172.484H172.409H172.32H172.244H172.156H172.067H171.978H171.89L156.064 242.929H155.976H155.887H155.798H155.723H155.659L155.457 243.106V243.169V243.245V243.321L155.394 243.397V243.486V243.562V243.65V243.726V243.802V243.878V243.954L141.63 269.571V269.634C141.63 269.634 141.63 269.634 141.63 269.71V269.786V269.849C141.63 269.849 141.63 269.849 141.63 269.925C141.63 270.001 141.63 269.925 141.63 269.988V270.09L139.049 272.468ZM174.559 236.3H174.622C174.622 236.3 174.686 236.3 174.736 236.3C174.678 236.288 174.617 236.288 174.559 236.3ZM140.947 274.568C140.976 274.402 141.037 274.244 141.124 274.1C141.031 274.259 140.971 274.436 140.947 274.619C140.947 274.619 140.947 274.568 140.947 274.568Z" fill="#455A64"/>
<path d="M133.635 12.8804L82.6156 41.9766C81.466 42.652 80.5117 43.6146 79.8464 44.7701C79.1811 45.9256 78.8275 47.2341 78.8205 48.5675V96.4369C78.8538 97.7594 79.2362 99.0496 79.929 100.177C80.6218 101.304 81.6004 102.227 82.7654 102.854C83.9304 103.481 85.2405 103.789 86.5628 103.746C87.885 103.703 89.1724 103.311 90.2944 102.61L104.842 94.4128L105.45 95.3995C105.477 95.4355 105.512 95.4656 105.551 95.4881H105.627C106.74 96.2218 108.701 97.2845 109.144 97.4995C109.246 97.5322 109.357 97.5242 109.454 97.4771C109.55 97.4299 109.625 97.3474 109.662 97.2465L112.192 90.1749L141.289 73.5142C142.447 72.8455 143.408 71.8825 144.074 70.7229C144.741 69.5633 145.089 68.2481 145.084 66.9107V19.0286C145.122 13.5762 137.063 10.9196 133.635 12.8804Z" fill="#0B8BE6"/>
<path opacity="0.2" d="M105.437 95.45C105.465 95.486 105.499 95.5161 105.538 95.5386H105.614C106.727 96.2723 108.688 97.335 109.131 97.55C109.079 97.5392 109.03 97.5179 108.986 97.4874C108.943 97.457 108.906 97.418 108.878 97.3729L106.474 93.4639L106.942 93.1982L104.83 94.4633L105.437 95.45Z" fill="white"/>
<path opacity="0.4" d="M87.3469 49.1868C87.8399 48.2094 88.534 47.3472 89.3836 46.6567C89.674 46.4215 89.9828 46.21 90.3071 46.0242L141.314 16.9281C141.699 16.7056 142.136 16.5887 142.581 16.5891C143.026 16.5896 143.463 16.7074 143.848 16.9306C144.233 17.1539 144.552 17.4747 144.774 17.8607C144.995 18.2467 145.111 18.6843 145.109 19.1293C145.109 13.6516 137.038 10.995 133.622 12.9559L82.6029 42.052C81.4185 42.7343 80.4431 43.7273 79.7819 44.9236L87.3469 49.1868Z" fill="white"/>
<path opacity="0.2" d="M86.4613 100.472V52.6025C86.4421 52.3034 86.4421 52.0034 86.4613 51.7044C86.5887 50.8235 86.8579 49.9691 87.2583 49.1743L79.668 44.8857C79.0251 46.0202 78.6853 47.3011 78.6813 48.605V96.4744C78.7146 97.7969 79.097 99.0871 79.7898 100.214C80.4827 101.341 81.4612 102.265 82.6262 102.892C83.7913 103.519 85.1013 103.826 86.4236 103.783C87.7458 103.741 89.0333 103.349 90.1553 102.648C89.7749 102.845 89.3506 102.943 88.9223 102.931C88.4939 102.919 88.0755 102.799 87.7063 102.582C87.3371 102.364 87.0292 102.057 86.8114 101.688C86.5937 101.319 86.4732 100.9 86.4613 100.472Z" fill="white"/>
<path d="M122.869 74.3359C122.768 76.613 120.339 80.3702 117.961 81.825L117.759 81.9515C115.228 83.4063 112.787 82.6853 112.471 80.3449L122.869 74.3359Z" fill="white"/>
<path d="M132.003 63.8236C132.648 64.064 132.851 65.4175 132.408 66.4928C132.185 67.0803 131.771 67.5751 131.231 67.897L129.827 68.7193L128.423 69.529L117.67 75.7277L104.324 83.4445C103.211 84.077 102.743 83.7734 102.692 82.5336C102.68 81.6756 102.946 80.8368 103.451 80.1427C104.905 77.8369 105.858 75.2507 106.247 72.5524C106.609 70.0389 106.778 67.5014 106.753 64.9621C106.722 63.4991 106.802 62.0359 106.993 60.5851C107.751 56.1989 109.704 52.1064 112.635 48.7569C113.011 48.4247 113.295 48.0008 113.459 47.5264C113.624 47.0521 113.662 46.5433 113.571 46.0497C113.512 44.5164 113.848 42.9937 114.546 41.6272C115.243 40.2606 116.28 39.0958 117.556 38.2443C118.219 37.8274 119.008 37.6613 119.783 37.7762C121.225 38.0419 121.832 39.2943 121.579 41.4196C121.427 42.6846 121.579 43.0009 122.553 43.0515C126.348 43.2792 128.334 45.8346 128.486 50.7303C128.562 53.1213 128.613 55.5122 128.777 57.8399C128.834 59.4267 129.296 60.9727 130.118 62.3308C130.568 63.0196 131.23 63.5435 132.003 63.8236ZM119.897 62.0399L120.984 49.0099L114.292 52.8809L115.444 64.6079L119.935 62.0778M117.708 71.338C118.648 70.7819 119.439 70.0053 120.012 69.0752C120.585 68.1451 120.923 67.0894 120.997 65.9995C120.997 64.0766 119.644 63.3935 117.695 64.5194C116.755 65.0623 115.962 65.8289 115.388 66.7513C114.815 67.6736 114.477 68.7233 114.406 69.8073C114.406 71.6922 115.773 72.4639 117.708 71.338ZM117.619 41.4069C117.221 41.6656 116.89 42.0147 116.653 42.4259C116.415 42.837 116.278 43.2985 116.253 43.7726C116.253 44.6328 116.86 44.9744 117.607 44.5569C118.003 44.2995 118.334 43.9523 118.571 43.5435C118.808 43.1348 118.946 42.6758 118.973 42.2039C118.973 41.331 118.366 40.9389 117.607 41.4069" fill="white"/>
</svg>
