<svg width="28" height="28" viewBox="0 0 28 28" fill="none" xmlns="http://www.w3.org/2000/svg">
<path d="M14.0234 3.39453C10.1618 3.39453 7.02344 6.53286 7.02344 10.3945V13.7662C7.02344 14.4779 6.7201 15.5629 6.35844 16.1695L5.01677 18.3979C4.18844 19.7745 4.7601 21.3029 6.27677 21.8162C11.3051 23.4962 16.7301 23.4962 21.7584 21.8162C23.1701 21.3495 23.7884 19.6812 23.0184 18.3979L21.6768 16.1695C21.3268 15.5629 21.0234 14.4779 21.0234 13.7662V10.3945C21.0234 6.54453 17.8734 3.39453 14.0234 3.39453Z" stroke="#727272" stroke-width="1.5" stroke-miterlimit="10" stroke-linecap="round"/>
<path d="M16.1817 3.73367C15.82 3.62867 15.4467 3.54701 15.0617 3.50034C13.9417 3.36034 12.8683 3.44201 11.865 3.73367C12.2033 2.87034 13.0433 2.26367 14.0233 2.26367C15.0033 2.26367 15.8433 2.87034 16.1817 3.73367Z" stroke="#727272" stroke-width="1.5" stroke-miterlimit="10" stroke-linecap="round" stroke-linejoin="round"/>
<path d="M17.5234 22.2363C17.5234 24.1613 15.9484 25.7363 14.0234 25.7363C13.0668 25.7363 12.1801 25.3397 11.5501 24.7097C10.9201 24.0797 10.5234 23.193 10.5234 22.2363" stroke="#727272" stroke-width="1.5" stroke-miterlimit="10"/>
</svg>
