<svg width="34" height="34" viewBox="0 0 34 34" fill="none" xmlns="http://www.w3.org/2000/svg">
<path d="M28.475 13.0619C25.9108 13.0619 24.8625 11.2485 26.1375 9.02436C26.8741 7.7352 26.435 6.09186 25.1458 5.35519L22.695 3.95269C21.5758 3.28686 20.1308 3.68353 19.465 4.8027L19.3091 5.07186C18.0341 7.29603 15.9375 7.29603 14.6483 5.07186L14.4925 4.8027C13.855 3.68353 12.41 3.28686 11.2908 3.95269L8.83998 5.35519C7.55081 6.09186 7.11165 7.74936 7.84831 9.03853C9.13748 11.2485 8.08915 13.0619 5.52498 13.0619C4.05165 13.0619 2.83331 14.266 2.83331 15.7535V18.2469C2.83331 19.7202 4.03748 20.9385 5.52498 20.9385C8.08915 20.9385 9.13748 22.7519 7.84831 24.976C7.11165 26.2652 7.55081 27.9085 8.83998 28.6452L11.2908 30.0477C12.41 30.7135 13.855 30.3169 14.5208 29.1977L14.6766 28.9285C15.9516 26.7044 18.0483 26.7044 19.3375 28.9285L19.4933 29.1977C20.1591 30.3169 21.6041 30.7135 22.7233 30.0477L25.1741 28.6452C26.4633 27.9085 26.9025 26.251 26.1658 24.976C24.8766 22.7519 25.925 20.9385 28.4891 20.9385C29.9625 20.9385 31.1808 19.7344 31.1808 18.2469V15.7535C31.1666 14.2802 29.9625 13.0619 28.475 13.0619ZM17 21.6044C14.4641 21.6044 12.3958 19.536 12.3958 17.0002C12.3958 14.4644 14.4641 12.396 17 12.396C19.5358 12.396 21.6041 14.4644 21.6041 17.0002C21.6041 19.536 19.5358 21.6044 17 21.6044Z" fill="white"/>
</svg>
