<svg width="28" height="28" viewBox="0 0 28 28" fill="none" xmlns="http://www.w3.org/2000/svg">
<path d="M23.7534 14.8515C23.3217 14.8515 22.96 14.5248 22.9134 14.0932C22.6334 11.5265 21.2567 9.21651 19.1334 7.74651C18.7484 7.47817 18.655 6.95317 18.9234 6.56817C19.1917 6.18317 19.7167 6.08984 20.1017 6.35817C22.6334 8.11984 24.2667 10.8732 24.605 13.9182C24.6517 14.3848 24.3134 14.8048 23.8467 14.8515C23.8117 14.8515 23.7884 14.8515 23.7534 14.8515Z" fill="#0B8BE6"/>
<path d="M4.36334 14.9097C4.34001 14.9097 4.30501 14.9097 4.28168 14.9097C3.81501 14.8631 3.47668 14.4431 3.52334 13.9764C3.83834 10.9314 5.44834 8.17808 7.95668 6.40475C8.33001 6.13641 8.86668 6.22975 9.13501 6.60308C9.40334 6.98808 9.31001 7.51308 8.93668 7.78141C6.83668 9.27475 5.47168 11.5847 5.21501 14.1397C5.16834 14.5831 4.79501 14.9097 4.36334 14.9097Z" fill="#0B8BE6"/>
<path d="M18.6551 24.6167C17.2201 25.3051 15.6801 25.6551 14.0701 25.6551C12.3901 25.6551 10.7918 25.2817 9.29845 24.5234C8.87845 24.3251 8.71512 23.8117 8.92512 23.3917C9.12345 22.9717 9.63678 22.8084 10.0568 23.0067C10.7918 23.3801 11.5735 23.6367 12.3668 23.7884C13.4401 23.9984 14.5368 24.0101 15.6101 23.8234C16.4035 23.6834 17.1851 23.4384 17.9085 23.0884C18.3401 22.8901 18.8534 23.0534 19.0401 23.4851C19.2501 23.9051 19.0868 24.4184 18.6551 24.6167Z" fill="#0B8BE6"/>
<path d="M14.0583 2.34473C12.25 2.34473 10.7683 3.81473 10.7683 5.63473C10.7683 7.45473 12.2383 8.92473 14.0583 8.92473C15.8783 8.92473 17.3483 7.45473 17.3483 5.63473C17.3483 3.81473 15.8783 2.34473 14.0583 2.34473Z" fill="#0B8BE6"/>
<path d="M5.89156 16.1816C4.08323 16.1816 2.60156 17.6516 2.60156 19.4716C2.60156 21.2916 4.07156 22.7616 5.89156 22.7616C7.71156 22.7616 9.18156 21.2916 9.18156 19.4716C9.18156 17.6516 7.6999 16.1816 5.89156 16.1816Z" fill="#0B8BE6"/>
<path d="M22.1084 16.1816C20.3 16.1816 18.8184 17.6516 18.8184 19.4716C18.8184 21.2916 20.2884 22.7616 22.1084 22.7616C23.9284 22.7616 25.3984 21.2916 25.3984 19.4716C25.3984 17.6516 23.9284 16.1816 22.1084 16.1816Z" fill="#0B8BE6"/>
</svg>
