<svg width="28" height="28" viewBox="0 0 28 28" fill="none" xmlns="http://www.w3.org/2000/svg">
<path d="M19.7866 7.19824C22.12 8.81991 23.73 11.3982 24.0566 14.3732" stroke="#727272" stroke-width="1.5" stroke-linecap="round" stroke-linejoin="round"/>
<path d="M4.07178 14.4318C4.37511 11.4685 5.96178 8.89017 8.27178 7.25684" stroke="#727272" stroke-width="1.5" stroke-linecap="round" stroke-linejoin="round"/>
<path d="M9.55493 24.4297C10.9083 25.118 12.4483 25.503 14.0699 25.503C15.6333 25.503 17.1033 25.153 18.4216 24.5114" stroke="#727272" stroke-width="1.5" stroke-linecap="round" stroke-linejoin="round"/>
<path d="M14.07 8.98374C15.8612 8.98374 17.3133 7.53165 17.3133 5.7404C17.3133 3.94916 15.8612 2.49707 14.07 2.49707C12.2788 2.49707 10.8267 3.94916 10.8267 5.7404C10.8267 7.53165 12.2788 8.98374 14.07 8.98374Z" stroke="#727272" stroke-width="1.5" stroke-linecap="round" stroke-linejoin="round"/>
<path d="M5.63494 23.2396C7.42618 23.2396 8.87827 21.7875 8.87827 19.9963C8.87827 18.205 7.42618 16.7529 5.63494 16.7529C3.84369 16.7529 2.3916 18.205 2.3916 19.9963C2.3916 21.7875 3.84369 23.2396 5.63494 23.2396Z" stroke="#727272" stroke-width="1.5" stroke-linecap="round" stroke-linejoin="round"/>
<path d="M22.3649 23.2396C24.1562 23.2396 25.6082 21.7875 25.6082 19.9963C25.6082 18.205 24.1562 16.7529 22.3649 16.7529C20.5737 16.7529 19.1216 18.205 19.1216 19.9963C19.1216 21.7875 20.5737 23.2396 22.3649 23.2396Z" stroke="#727272" stroke-width="1.5" stroke-linecap="round" stroke-linejoin="round"/>
</svg>
