<svg class="Icon Icon--learning-logo" viewBox="0 0 48 48" fill="none" xmlns="http://www.w3.org/2000/svg">
<g>
<path d="M10.6477 2.8071H11.4851V0.653778H10.6477C8.85511 0.653778 7.13592 1.36589 5.86836 2.63346C4.60079 3.90102 3.88868 5.62021 3.88868 7.41282V12.3176C3.89106 13.3561 3.495 14.3559 2.78211 15.111C2.07154 15.8685 1.09741 16.3245 0.0605469 16.385L0.120361 17.4617L0.0605469 18.5383C1.09741 18.5988 2.07154 19.0549 2.78211 19.8124C3.495 20.5675 3.89106 21.5673 3.88868 22.6057V28.2582C3.88632 29.1872 4.06706 30.1075 4.42056 30.9665C4.77406 31.8256 5.29339 32.6066 5.94888 33.2649C6.60436 33.9231 7.38315 34.4458 8.24072 34.8029C9.09829 35.16 10.0178 35.3447 10.9468 35.3462V33.1929C9.64645 33.1913 8.39982 32.6741 7.48033 31.7546C6.56085 30.8351 6.04359 29.5884 6.042 28.2881V22.6057C6.04293 21.5914 5.79547 20.5923 5.32124 19.6957C4.84648 18.799 4.15959 18.032 3.32044 17.4617C4.15801 16.89 4.84289 16.1219 5.31526 15.2246C5.7903 14.3291 6.03975 13.3313 6.042 12.3176V7.41282C6.04751 6.19301 6.53452 5.02472 7.39707 4.16217C8.25962 3.29962 9.42791 2.81261 10.6477 2.8071Z" fill="white"></path>
<path d="M35.5303 2.8071H34.6929V0.653778H35.5303C36.4159 0.65574 37.2925 0.832124 38.11 1.17286C38.9275 1.5136 39.6698 2.01201 40.2947 2.63965C40.9195 3.26728 41.4147 4.01185 41.7518 4.83083C42.0889 5.64981 42.2614 6.52718 42.2594 7.41282V12.3176C42.2591 13.3557 42.6551 14.3548 43.3666 15.1108C44.078 15.8667 45.0513 16.3225 46.0875 16.385L46.0277 17.4617L46.0875 18.5383C45.0513 18.6008 44.078 19.0566 43.3666 19.8126C42.6551 20.5685 42.2591 21.5676 42.2594 22.6057V28.2582C42.2618 29.1872 42.081 30.1075 41.7275 30.9665C41.374 31.8256 40.8547 32.6066 40.1992 33.2649C39.5437 33.9231 38.7649 34.4458 37.9074 34.8029C37.0498 35.16 36.1303 35.3447 35.2013 35.3462V33.1929C36.5016 33.1913 37.7483 32.6741 38.6678 31.7546C39.5872 30.8351 40.1045 29.5884 40.1061 28.2881V22.6057C40.1052 21.5912 40.3528 20.592 40.8272 19.6953C41.3016 18.7985 41.9884 18.0317 42.8276 17.4617C41.9916 16.8885 41.3071 16.121 40.8331 15.225C40.359 14.329 40.1095 13.3313 40.1061 12.3176V7.41282C40.1119 6.50393 39.8467 5.61392 39.3443 4.85644C38.842 4.09895 38.1253 3.50834 37.2858 3.16001C36.7299 2.92683 36.1331 2.80686 35.5303 2.8071Z" fill="white"></path>
<path d="M30.9247 9.32687H34.1248L27.4555 15.5775C26.2592 16.6609 24.7029 17.2608 23.089 17.2608C21.4751 17.2608 19.9188 16.6609 18.7225 15.5775L12.0532 9.32687H15.2533L20.3076 14.0522C21.0624 14.7449 22.0496 15.1293 23.0741 15.1293C24.0985 15.1293 25.0857 14.7449 25.8405 14.0522L30.9247 9.32687Z" fill="white"></path>
<path d="M15.2235 26.6732H12.0234L18.7227 20.3927C19.9126 19.2966 21.4713 18.6881 23.0891 18.6881C24.707 18.6881 26.2656 19.2966 27.4556 20.3927L34.1548 26.6732H30.9547L25.8705 21.888C25.1157 21.1953 24.1286 20.811 23.1041 20.811C22.0796 20.811 21.0924 21.1953 20.3377 21.888L15.2235 26.6732Z" fill="white"></path>
</g>
</svg>